<?xml version="1.0" encoding="utf-8"?>
<!-- Generator: Adobe Illustrator 26.0.1, SVG Export Plug-In . SVG Version: 6.00 Build 0)  -->
<svg version="1.1" id="Layer_1" xmlns="http://www.w3.org/2000/svg" xmlns:xlink="http://www.w3.org/1999/xlink" x="0px" y="0px"
	 viewBox="0 0 1569.5 250" style="enable-background:new 0 0 1569.5 250;" xml:space="preserve">
<style type="text/css">
	.st0{fill:#FFFFFF;}
	.st1{fill:#1BD741;}
</style>
<g>
	<path class="st0" d="M38.7,160c-2.1-8-11.4-10.5-17.5-4.5c-5.9,5.8-11.7,11.6-17.5,17.5c0.6,8.3,2.5,16.2,5.5,23.5
		c8.6-8.7,17.2-17.2,25.8-25.9c0.7-0.7,1.4-1.4,2-2.2C38.8,165.9,39.5,163.1,38.7,160z M91.8,211.5c-4.4-2.4-9-1.7-12.9,2.3
		c-8.9,8.8-17.7,17.7-26.5,26.5c7.2,3,15,5,23.1,5.8c6.2-6.1,12.3-12.3,18.5-18.5c0.3-0.3,0.6-0.7,0.8-1
		C98.6,221.9,97.2,214.5,91.8,211.5z"/>
	<path class="st1" d="M197.9,70.5h-7.1c-0.6,0-0.6,0-0.6-0.6v-3.5c0-1.2,0-2.4,0-3.7c0-0.6-0.2-0.9-0.8-1c-1.2,0-2.5,0-3.7,0
		c-0.6,0-0.9,0.3-0.9,1c0,0.1,0,0.2,0,0.4c0,2.3,0,4.6,0,7c0,0.4-0.1,0.5-0.5,0.5c-2.2,0-4.5,0-6.8,0H177c-0.6,0-0.9,0.3-0.9,0.9
		v3.7c0,0.5,0.2,0.8,0.7,0.8c0.2,0,0.3,0,0.5,0c2.3,0,4.7,0,7,0c0.4,0,0.5,0.1,0.5,0.5c0,0.1,0,0.2,0,0.3v6.7c0,1,0.2,1.2,1.2,1.2
		h3.1c0.9,0,1.1-0.2,1.1-1.1c0-2.4,0-4.7,0-7.1c0-0.4,0.1-0.5,0.5-0.5c2.4,0,4.8,0,7.2,0c0.8,0,1.1-0.3,1.1-1.1c0-1.1,0-2.2,0-3.2
		C199,70.8,198.7,70.5,197.9,70.5z M197.9,70.5h-7.1c-0.6,0-0.6,0-0.6-0.6v-3.5c0-1.2,0-2.4,0-3.7c0-0.6-0.2-0.9-0.8-1
		c-1.2,0-2.5,0-3.7,0c-0.6,0-0.9,0.3-0.9,1c0,0.1,0,0.2,0,0.4c0,2.3,0,4.6,0,7c0,0.4-0.1,0.5-0.5,0.5c-2.2,0-4.5,0-6.8,0H177
		c-0.6,0-0.9,0.3-0.9,0.9v3.7c0,0.5,0.2,0.8,0.7,0.8c0.2,0,0.3,0,0.5,0c2.3,0,4.7,0,7,0c0.4,0,0.5,0.1,0.5,0.5c0,0.1,0,0.2,0,0.3
		v6.7c0,1,0.2,1.2,1.2,1.2h3.1c0.9,0,1.1-0.2,1.1-1.1c0-2.4,0-4.7,0-7.1c0-0.4,0.1-0.5,0.5-0.5c2.4,0,4.8,0,7.2,0
		c0.8,0,1.1-0.3,1.1-1.1c0-1.1,0-2.2,0-3.2C199,70.8,198.7,70.5,197.9,70.5z M197.9,70.5h-7.1c-0.6,0-0.6,0-0.6-0.6v-3.5
		c0-1.2,0-2.4,0-3.7c0-0.6-0.2-0.9-0.8-1c-1.2,0-2.5,0-3.7,0c-0.6,0-0.9,0.3-0.9,1c0,0.1,0,0.2,0,0.4c0,2.3,0,4.6,0,7
		c0,0.4-0.1,0.5-0.5,0.5c-2.2,0-4.5,0-6.8,0H177c-0.6,0-0.9,0.3-0.9,0.9v3.7c0,0.5,0.2,0.8,0.7,0.8c0.2,0,0.3,0,0.5,0
		c2.3,0,4.7,0,7,0c0.4,0,0.5,0.1,0.5,0.5c0,0.1,0,0.2,0,0.3v6.7c0,1,0.2,1.2,1.2,1.2h3.1c0.9,0,1.1-0.2,1.1-1.1c0-2.4,0-4.7,0-7.1
		c0-0.4,0.1-0.5,0.5-0.5c2.4,0,4.8,0,7.2,0c0.8,0,1.1-0.3,1.1-1.1c0-1.1,0-2.2,0-3.2C199,70.8,198.7,70.5,197.9,70.5z M197.9,70.5
		h-7.1c-0.6,0-0.6,0-0.6-0.6v-3.5c0-1.2,0-2.4,0-3.7c0-0.6-0.2-0.9-0.8-1c-1.2,0-2.5,0-3.7,0c-0.6,0-0.9,0.3-0.9,1
		c0,0.1,0,0.2,0,0.4c0,2.3,0,4.6,0,7c0,0.4-0.1,0.5-0.5,0.5c-2.2,0-4.5,0-6.8,0H177c-0.6,0-0.9,0.3-0.9,0.9v3.7
		c0,0.5,0.2,0.8,0.7,0.8c0.2,0,0.3,0,0.5,0c2.3,0,4.7,0,7,0c0.4,0,0.5,0.1,0.5,0.5c0,0.1,0,0.2,0,0.3v6.7c0,1,0.2,1.2,1.2,1.2h3.1
		c0.9,0,1.1-0.2,1.1-1.1c0-2.4,0-4.7,0-7.1c0-0.4,0.1-0.5,0.5-0.5c2.4,0,4.8,0,7.2,0c0.8,0,1.1-0.3,1.1-1.1c0-1.1,0-2.2,0-3.2
		C199,70.8,198.7,70.5,197.9,70.5z M246.5,82.2c0-0.3,0-0.6,0-0.9c0-0.9-0.1-1.8-0.1-2.8c0-0.2,0-0.5,0-0.7c0-0.3,0-0.5,0-0.8
		c-0.6-8.3-2.5-16.2-5.5-23.5c-0.1-0.3-0.2-0.6-0.4-0.9c-0.1-0.3-0.2-0.5-0.3-0.8c-0.2-0.4-0.3-0.8-0.5-1.1
		c-0.1-0.3-0.2-0.5-0.4-0.8c-0.1-0.3-0.3-0.6-0.4-0.9c-0.1-0.2-0.2-0.5-0.4-0.8c-0.7-1.5-1.5-3-2.4-4.5c-0.1-0.2-0.2-0.3-0.3-0.5
		c-0.1-0.2-0.2-0.3-0.3-0.5c-1.1-1.9-2.4-3.8-3.7-5.6c-0.1-0.2-0.2-0.3-0.4-0.5c-0.5-0.6-0.9-1.3-1.4-1.9c-0.2-0.3-0.4-0.5-0.6-0.8
		c-0.2-0.3-0.4-0.5-0.6-0.8c-1.1-1.3-2.2-2.7-3.4-3.9c-0.2-0.2-0.3-0.3-0.5-0.5c-0.7-0.8-1.5-1.5-2.2-2.3c-0.2-0.2-0.3-0.3-0.5-0.5
		c-0.6-0.6-1.2-1.2-1.9-1.7c-0.2-0.2-0.3-0.3-0.5-0.5c-1.9-1.7-3.8-3.3-5.9-4.8c-0.2-0.1-0.3-0.2-0.5-0.4c-0.3-0.2-0.7-0.5-1-0.8
		c-0.3-0.2-0.5-0.4-0.8-0.5c-1.6-1.1-3.3-2.2-5-3.1c-0.3-0.2-0.5-0.3-0.8-0.5c-0.6-0.3-1.2-0.7-1.8-1c-0.6-0.3-1.1-0.6-1.7-0.9
		c-0.4-0.2-0.8-0.4-1.2-0.6c-0.2-0.1-0.4-0.2-0.7-0.3c-0.3-0.1-0.6-0.3-0.9-0.4c-0.3-0.1-0.6-0.3-0.9-0.4c-0.3-0.1-0.6-0.3-0.9-0.4
		c-7.2-3-15-5-23.1-5.8c-0.3,0-0.6-0.1-0.9-0.1c-0.3,0-0.7-0.1-1-0.1c-0.6,0-1.1-0.1-1.7-0.1c-0.2,0-0.3,0-0.5,0c-0.2,0-0.4,0-0.7,0
		c-0.3,0-0.6,0-1,0c-0.7,0-1.3,0-2,0H83.2c-44,0-79.7,35.7-79.7,79.7v83.6c0,0.3,0,0.7,0,1c0,0.3,0,0.6,0,0.9c0,0.9,0.1,1.8,0.1,2.8
		c0,0.2,0,0.5,0,0.7c0,0.3,0,0.5,0,0.8c5.8-5.9,11.7-11.7,17.5-17.5c6.1-6,15.4-3.5,17.5,4.5c0.8,3,0.1,5.9-1.7,8.4
		c-0.6,0.8-1.3,1.5-2,2.2c-8.6,8.6-17.3,17.2-25.8,25.9c0.3,0.9,0.7,1.7,1.1,2.6c0,0.1,0.1,0.2,0.1,0.3c0.1,0.3,0.2,0.5,0.4,0.8
		c0.1,0.3,0.3,0.6,0.4,0.9c0.1,0.3,0.3,0.6,0.4,0.9c0.1,0.3,0.3,0.6,0.4,0.8c0.6,1.2,1.2,2.4,1.9,3.5c0.2,0.3,0.3,0.6,0.5,0.9
		c0.3,0.6,0.7,1.1,1,1.7c0.3,0.6,0.7,1.1,1.1,1.7c0.5,0.8,1.1,1.6,1.7,2.4c0.1,0.2,0.2,0.3,0.4,0.5c1.6,2.2,3.2,4.2,5,6.2
		c0.2,0.2,0.4,0.5,0.6,0.7c0.1,0.1,0.2,0.3,0.4,0.4c0.2,0.2,0.3,0.3,0.5,0.5c1.3,1.3,2.6,2.6,3.9,3.9c0.2,0.2,0.4,0.4,0.7,0.6
		c0.2,0.2,0.5,0.4,0.7,0.6c1,0.9,1.9,1.7,2.9,2.5c0.2,0.2,0.5,0.4,0.7,0.5c0.7,0.5,1.4,1.1,2.1,1.6c0.2,0.2,0.4,0.3,0.6,0.4
		c0.6,0.4,1.2,0.9,1.8,1.3c0.2,0.2,0.4,0.3,0.6,0.4c0.9,0.6,1.8,1.2,2.7,1.7c0.3,0.2,0.5,0.3,0.8,0.5c0.3,0.2,0.6,0.4,0.9,0.5
		c0.3,0.2,0.6,0.3,0.9,0.5c1.2,0.7,2.4,1.3,3.6,1.9c0.3,0.1,0.6,0.3,0.8,0.4c0.3,0.1,0.6,0.3,0.9,0.4c0.6,0.3,1.2,0.5,1.8,0.8
		c0.3,0.1,0.6,0.3,0.9,0.4c8.9-8.8,17.7-17.7,26.5-26.5c3.9-3.9,8.6-4.7,12.9-2.3c5.4,3,6.8,10.3,2.9,15.2c-0.3,0.3-0.5,0.7-0.8,1
		c-6.2,6.2-12.3,12.3-18.5,18.5c0.3,0,0.6,0.1,0.9,0.1c0.3,0,0.7,0.1,1,0.1c0.6,0,1.1,0.1,1.7,0.1c0.2,0,0.3,0,0.5,0
		c0.2,0,0.4,0,0.7,0c0.3,0,0.6,0,1,0c0.7,0,1.3,0,2,0h83.6c44,0,79.7-35.7,79.7-79.7V83.2C246.5,82.8,246.5,82.5,246.5,82.2z
		 M187.8,94.1h-0.5c-0.2,0-0.3-0.1-0.5-0.1c-0.9-0.1-1.8-0.1-2.6-0.3c-3.2-0.5-6-1.7-8.5-3.5c-1.9,0.5-3.7,1-5.6,1.5
		c-0.6,0.2-0.9,0.2-0.6-0.6c0.5-1.8,1-3.6,1.5-5.4c-2.9-3.8-4.3-8.3-4.2-13.3c0.1-1.9,0.4-3.7,0.9-5.5c3.1-9.8,13.1-15.9,23.2-14.2
		c5.8,1,10.4,4,13.8,8.9c2.2,3.2,3.4,6.9,3.6,10.8c0,0.2,0.1,0.4,0.1,0.6v0.5c0,0.2-0.1,0.4-0.1,0.6c-0.2,1.3-0.2,2.7-0.5,4
		c-2.2,9.2-10.3,15.7-19.4,15.9C188.2,94,188,94.1,187.8,94.1z M51.5,212.2c-2.3,2.3-4.8,3.8-8.7,3.9c-3.6-0.2-6.8-1.9-8.7-5.7
		c-1.8-3.8-1.4-7.4,1.1-10.8c0.5-0.6,1-1.2,1.6-1.8c18-18.1,36.1-36.1,54.1-54.2l2.2-2.2c4.6-4.6,10.3-5,14.7-1.2
		c4.1,3.6,4.7,9.7,1.3,14c-0.5,0.7-1.1,1.3-1.7,1.9l-2.6,2.6C87.1,176.5,69.3,194.4,51.5,212.2z M158.1,162.1
		c-1.9,2.7-4,5.3-6.5,7.8c-9.4,9.5-18.8,18.9-28.2,28.2c-6.2,6.1-15.5,3.8-17.6-4.4c-0.8-3-0.2-5.9,1.7-8.4c0.6-0.8,1.3-1.5,2-2.2
		c5.4-5.4,10.8-10.8,16.2-16.3c3.8-3.8,7.5-7.6,11.3-11.3c2.9-2.9,5.1-6.2,6.7-9.8c3.9-8.9,3.6-19.1-1.4-27.6
		c-7.8-13.2-22.8-18.3-36.1-14c-4.5,1.5-8.9,4.1-12.7,7.8c-3.4,3.4-6.8,6.8-10.2,10.1c-6,6-12,12-17.9,18c-3.8,3.8-8.5,4.6-12.8,2.2
		c-5.4-3-6.9-10.3-3-15.2c0.3-0.3,0.5-0.7,0.8-1C61,115.8,71.1,105,82,95.1c3.1-2.9,6.5-5.3,9.9-7.2c9.3-5.1,19.8-6.8,31.1-5
		c0.4,0.1,0.9,0.1,1.3,0.2c8,1.4,14.9,4.2,20.8,8.2c5.6,3.9,10.3,8.9,13.9,15c2.1,3.6,3.9,7.5,5.4,11.8c1.1,3.1,1.6,6.4,2.1,9.7
		l0.4,5.4C166.8,144,163.8,153.6,158.1,162.1z M197.9,70.5h-7.1c-0.6,0-0.6,0-0.6-0.6v-3.5c0-1.2,0-2.4,0-3.7c0-0.6-0.2-0.9-0.8-1
		c-1.2,0-2.5,0-3.7,0c-0.6,0-0.9,0.3-0.9,1c0,0.1,0,0.2,0,0.4c0,2.3,0,4.6,0,7c0,0.4-0.1,0.5-0.5,0.5c-2.2,0-4.5,0-6.8,0H177
		c-0.6,0-0.9,0.3-0.9,0.9v3.7c0,0.5,0.2,0.8,0.7,0.8c0.2,0,0.3,0,0.5,0c2.3,0,4.7,0,7,0c0.4,0,0.5,0.1,0.5,0.5c0,0.1,0,0.2,0,0.3
		v6.7c0,1,0.2,1.2,1.2,1.2h3.1c0.9,0,1.1-0.2,1.1-1.1c0-2.4,0-4.7,0-7.1c0-0.4,0.1-0.5,0.5-0.5c2.4,0,4.8,0,7.2,0
		c0.8,0,1.1-0.3,1.1-1.1c0-1.1,0-2.2,0-3.2C199,70.8,198.7,70.5,197.9,70.5z M197.9,70.5h-7.1c-0.6,0-0.6,0-0.6-0.6v-3.5
		c0-1.2,0-2.4,0-3.7c0-0.6-0.2-0.9-0.8-1c-1.2,0-2.5,0-3.7,0c-0.6,0-0.9,0.3-0.9,1c0,0.1,0,0.2,0,0.4c0,2.3,0,4.6,0,7
		c0,0.4-0.1,0.5-0.5,0.5c-2.2,0-4.5,0-6.8,0H177c-0.6,0-0.9,0.3-0.9,0.9v3.7c0,0.5,0.2,0.8,0.7,0.8c0.2,0,0.3,0,0.5,0
		c2.3,0,4.7,0,7,0c0.4,0,0.5,0.1,0.5,0.5c0,0.1,0,0.2,0,0.3v6.7c0,1,0.2,1.2,1.2,1.2h3.1c0.9,0,1.1-0.2,1.1-1.1c0-2.4,0-4.7,0-7.1
		c0-0.4,0.1-0.5,0.5-0.5c2.4,0,4.8,0,7.2,0c0.8,0,1.1-0.3,1.1-1.1c0-1.1,0-2.2,0-3.2C199,70.8,198.7,70.5,197.9,70.5z M197.9,70.5
		h-7.1c-0.6,0-0.6,0-0.6-0.6v-3.5c0-1.2,0-2.4,0-3.7c0-0.6-0.2-0.9-0.8-1c-1.2,0-2.5,0-3.7,0c-0.6,0-0.9,0.3-0.9,1
		c0,0.1,0,0.2,0,0.4c0,2.3,0,4.6,0,7c0,0.4-0.1,0.5-0.5,0.5c-2.2,0-4.5,0-6.8,0H177c-0.6,0-0.9,0.3-0.9,0.9v3.7
		c0,0.5,0.2,0.8,0.7,0.8c0.2,0,0.3,0,0.5,0c2.3,0,4.7,0,7,0c0.4,0,0.5,0.1,0.5,0.5c0,0.1,0,0.2,0,0.3v6.7c0,1,0.2,1.2,1.2,1.2h3.1
		c0.9,0,1.1-0.2,1.1-1.1c0-2.4,0-4.7,0-7.1c0-0.4,0.1-0.5,0.5-0.5c2.4,0,4.8,0,7.2,0c0.8,0,1.1-0.3,1.1-1.1c0-1.1,0-2.2,0-3.2
		C199,70.8,198.7,70.5,197.9,70.5z"/>
	<path class="st0" d="M166.9,133.2c-0.1,10.8-3,20.5-8.8,28.9c-1.9,2.7-4,5.3-6.5,7.8c-9.4,9.5-18.8,18.9-28.2,28.2
		c-6.2,6.1-15.5,3.7-17.6-4.4c-0.8-3-0.1-5.9,1.7-8.4c0.6-0.8,1.3-1.5,2-2.2c5.4-5.4,10.8-10.8,16.2-16.3c3.8-3.8,7.6-7.6,11.3-11.3
		c2.9-2.9,5.1-6.2,6.7-9.8c4-8.9,3.6-19.1-1.4-27.6c-7.8-13.3-22.8-18.3-36.1-14c-4.5,1.5-8.9,4.1-12.7,7.8
		c-3.4,3.4-6.8,6.8-10.2,10.1c-6,6-12,12-17.9,18c-3.8,3.8-8.5,4.6-12.8,2.2c-5.4-3-6.9-10.3-3-15.2c0.3-0.3,0.5-0.7,0.8-1
		C61,115.8,71.1,105,82,95.1c3.1-2.9,6.5-5.3,9.9-7.2c9.3-5.1,19.8-6.8,31.1-5c0.4,0.1,0.9,0.1,1.3,0.2c8,1.4,14.9,4.2,20.8,8.2
		c5.6,3.9,10.3,8.9,14,15c2.1,3.6,3.9,7.5,5.4,11.8c1.1,3.1,1.6,6.4,2.1,9.7L166.9,133.2z"/>
	<path class="st0" d="M109.2,154.2c-0.5,0.7-1.1,1.3-1.7,1.9c-0.9,0.9-1.7,1.7-2.6,2.6c-17.8,17.8-35.6,35.7-53.5,53.5
		c-2.3,2.3-4.8,3.8-8.6,3.9c-3.6-0.2-6.8-1.9-8.7-5.7c-1.8-3.8-1.4-7.4,1.1-10.8c0.5-0.6,1-1.2,1.6-1.8c18-18.1,36.1-36.1,54.1-54.2
		c0.7-0.7,1.5-1.5,2.2-2.2c4.6-4.6,10.3-5,14.7-1.2C112,143.8,112.6,149.9,109.2,154.2z"/>
	<g>
		<path class="st0" d="M197.9,70.5h-7.1c-0.6,0-0.6,0-0.6-0.6v-3.5c0-1.2,0-2.4,0-3.7c0-0.6-0.2-0.9-0.8-1c-1.2,0-2.5,0-3.7,0
			c-0.6,0-0.9,0.3-0.9,1c0,0.1,0,0.2,0,0.4c0,2.3,0,4.6,0,7c0,0.4-0.1,0.5-0.5,0.5c-2.2,0-4.5,0-6.8,0H177c-0.6,0-0.9,0.3-0.9,0.9
			v3.7c0,0.5,0.2,0.8,0.7,0.8c0.2,0,0.3,0,0.5,0c2.3,0,4.7,0,7,0c0.4,0,0.5,0.1,0.5,0.5c0,0.1,0,0.2,0,0.3v6.7c0,1,0.2,1.2,1.2,1.2
			h3.1c0.9,0,1.1-0.2,1.1-1.1c0-2.4,0-4.7,0-7.1c0-0.4,0.1-0.5,0.5-0.5c2.4,0,4.8,0,7.2,0c0.8,0,1.1-0.3,1.1-1.1c0-1.1,0-2.2,0-3.2
			C199,70.8,198.7,70.5,197.9,70.5z M197.9,70.5h-7.1c-0.6,0-0.6,0-0.6-0.6v-3.5c0-1.2,0-2.4,0-3.7c0-0.6-0.2-0.9-0.8-1
			c-1.2,0-2.5,0-3.7,0c-0.6,0-0.9,0.3-0.9,1c0,0.1,0,0.2,0,0.4c0,2.3,0,4.6,0,7c0,0.4-0.1,0.5-0.5,0.5c-2.2,0-4.5,0-6.8,0H177
			c-0.6,0-0.9,0.3-0.9,0.9v3.7c0,0.5,0.2,0.8,0.7,0.8c0.2,0,0.3,0,0.5,0c2.3,0,4.7,0,7,0c0.4,0,0.5,0.1,0.5,0.5c0,0.1,0,0.2,0,0.3
			v6.7c0,1,0.2,1.2,1.2,1.2h3.1c0.9,0,1.1-0.2,1.1-1.1c0-2.4,0-4.7,0-7.1c0-0.4,0.1-0.5,0.5-0.5c2.4,0,4.8,0,7.2,0
			c0.8,0,1.1-0.3,1.1-1.1c0-1.1,0-2.2,0-3.2C199,70.8,198.7,70.5,197.9,70.5z M197.9,70.5h-7.1c-0.6,0-0.6,0-0.6-0.6v-3.5
			c0-1.2,0-2.4,0-3.7c0-0.6-0.2-0.9-0.8-1c-1.2,0-2.5,0-3.7,0c-0.6,0-0.9,0.3-0.9,1c0,0.1,0,0.2,0,0.4c0,2.3,0,4.6,0,7
			c0,0.4-0.1,0.5-0.5,0.5c-2.2,0-4.5,0-6.8,0H177c-0.6,0-0.9,0.3-0.9,0.9v3.7c0,0.5,0.2,0.8,0.7,0.8c0.2,0,0.3,0,0.5,0
			c2.3,0,4.7,0,7,0c0.4,0,0.5,0.1,0.5,0.5c0,0.1,0,0.2,0,0.3v6.7c0,1,0.2,1.2,1.2,1.2h3.1c0.9,0,1.1-0.2,1.1-1.1c0-2.4,0-4.7,0-7.1
			c0-0.4,0.1-0.5,0.5-0.5c2.4,0,4.8,0,7.2,0c0.8,0,1.1-0.3,1.1-1.1c0-1.1,0-2.2,0-3.2C199,70.8,198.7,70.5,197.9,70.5z M197.9,70.5
			h-7.1c-0.6,0-0.6,0-0.6-0.6v-3.5c0-1.2,0-2.4,0-3.7c0-0.6-0.2-0.9-0.8-1c-1.2,0-2.5,0-3.7,0c-0.6,0-0.9,0.3-0.9,1
			c0,0.1,0,0.2,0,0.4c0,2.3,0,4.6,0,7c0,0.4-0.1,0.5-0.5,0.5c-2.2,0-4.5,0-6.8,0H177c-0.6,0-0.9,0.3-0.9,0.9v3.7
			c0,0.5,0.2,0.8,0.7,0.8c0.2,0,0.3,0,0.5,0c2.3,0,4.7,0,7,0c0.4,0,0.5,0.1,0.5,0.5c0,0.1,0,0.2,0,0.3v6.7c0,1,0.2,1.2,1.2,1.2h3.1
			c0.9,0,1.1-0.2,1.1-1.1c0-2.4,0-4.7,0-7.1c0-0.4,0.1-0.5,0.5-0.5c2.4,0,4.8,0,7.2,0c0.8,0,1.1-0.3,1.1-1.1c0-1.1,0-2.2,0-3.2
			C199,70.8,198.7,70.5,197.9,70.5z M212.8,63.9c-4.6-12.4-17.8-19.8-30.8-17c-11.3,2.4-19.8,11.7-21.3,23.1
			c-0.8,6.6,0.6,12.7,4.3,18.2c0.3,0.5,0.4,1,0.2,1.5c-0.7,2.5-1.4,5.1-2.2,7.7c-0.2,0.8,0,0.8,0.6,0.6c2.6-0.7,5.2-1.3,7.8-2
			c0.6-0.2,1.2-0.1,1.8,0.2c7,4.2,14.4,5.2,22.2,2.9c11.2-3.4,19.1-14,19.1-25.1C214.5,70.1,214,67,212.8,63.9z M208.4,73.5
			c0,0.2-0.1,0.4-0.1,0.6c-0.2,1.3-0.2,2.7-0.5,4c-2.2,9.2-10.3,15.7-19.4,15.9c-0.2,0-0.4,0.1-0.6,0.1h-0.5c-0.2,0-0.3-0.1-0.5-0.1
			c-0.9-0.1-1.8-0.1-2.6-0.3c-3.2-0.5-6-1.7-8.5-3.5c-1.9,0.5-3.7,1-5.6,1.5c-0.6,0.2-0.9,0.2-0.6-0.6c0.5-1.8,1-3.6,1.5-5.4
			c-2.9-3.8-4.3-8.3-4.2-13.3c0.1-1.9,0.4-3.7,0.9-5.5c3.1-9.8,13.1-15.9,23.2-14.2c5.8,1,10.4,4,13.8,8.9c2.2,3.2,3.4,6.9,3.6,10.8
			c0,0.2,0.1,0.4,0.1,0.6V73.5z M197.9,70.5h-7.1c-0.6,0-0.6,0-0.6-0.6v-3.5c0-1.2,0-2.4,0-3.7c0-0.6-0.2-0.9-0.8-1
			c-1.2,0-2.5,0-3.7,0c-0.6,0-0.9,0.3-0.9,1c0,0.1,0,0.2,0,0.4c0,2.3,0,4.6,0,7c0,0.4-0.1,0.5-0.5,0.5c-2.2,0-4.5,0-6.8,0H177
			c-0.6,0-0.9,0.3-0.9,0.9v3.7c0,0.5,0.2,0.8,0.7,0.8c0.2,0,0.3,0,0.5,0c2.3,0,4.7,0,7,0c0.4,0,0.5,0.1,0.5,0.5c0,0.1,0,0.2,0,0.3
			v6.7c0,1,0.2,1.2,1.2,1.2h3.1c0.9,0,1.1-0.2,1.1-1.1c0-2.4,0-4.7,0-7.1c0-0.4,0.1-0.5,0.5-0.5c2.4,0,4.8,0,7.2,0
			c0.8,0,1.1-0.3,1.1-1.1c0-1.1,0-2.2,0-3.2C199,70.8,198.7,70.5,197.9,70.5z M197.9,70.5h-7.1c-0.6,0-0.6,0-0.6-0.6v-3.5
			c0-1.2,0-2.4,0-3.7c0-0.6-0.2-0.9-0.8-1c-1.2,0-2.5,0-3.7,0c-0.6,0-0.9,0.3-0.9,1c0,0.1,0,0.2,0,0.4c0,2.3,0,4.6,0,7
			c0,0.4-0.1,0.5-0.5,0.5c-2.2,0-4.5,0-6.8,0H177c-0.6,0-0.9,0.3-0.9,0.9v3.7c0,0.5,0.2,0.8,0.7,0.8c0.2,0,0.3,0,0.5,0
			c2.3,0,4.7,0,7,0c0.4,0,0.5,0.1,0.5,0.5c0,0.1,0,0.2,0,0.3v6.7c0,1,0.2,1.2,1.2,1.2h3.1c0.9,0,1.1-0.2,1.1-1.1c0-2.4,0-4.7,0-7.1
			c0-0.4,0.1-0.5,0.5-0.5c2.4,0,4.8,0,7.2,0c0.8,0,1.1-0.3,1.1-1.1c0-1.1,0-2.2,0-3.2C199,70.8,198.7,70.5,197.9,70.5z M197.9,70.5
			h-7.1c-0.6,0-0.6,0-0.6-0.6v-3.5c0-1.2,0-2.4,0-3.7c0-0.6-0.2-0.9-0.8-1c-1.2,0-2.5,0-3.7,0c-0.6,0-0.9,0.3-0.9,1
			c0,0.1,0,0.2,0,0.4c0,2.3,0,4.6,0,7c0,0.4-0.1,0.5-0.5,0.5c-2.2,0-4.5,0-6.8,0H177c-0.6,0-0.9,0.3-0.9,0.9v3.7
			c0,0.5,0.2,0.8,0.7,0.8c0.2,0,0.3,0,0.5,0c2.3,0,4.7,0,7,0c0.4,0,0.5,0.1,0.5,0.5c0,0.1,0,0.2,0,0.3v6.7c0,1,0.2,1.2,1.2,1.2h3.1
			c0.9,0,1.1-0.2,1.1-1.1c0-2.4,0-4.7,0-7.1c0-0.4,0.1-0.5,0.5-0.5c2.4,0,4.8,0,7.2,0c0.8,0,1.1-0.3,1.1-1.1c0-1.1,0-2.2,0-3.2
			C199,70.8,198.7,70.5,197.9,70.5z"/>
		<g>
			<path class="st0" d="M199,71.6c0,1.1,0,2.2,0,3.2c0,0.8-0.3,1.1-1.1,1.1c-2.4,0-4.8,0-7.2,0c-0.4,0-0.5,0.1-0.5,0.5
				c0,2.4,0,4.7,0,7.1c0,0.9-0.2,1.1-1.1,1.1H186c-1,0-1.2-0.2-1.2-1.2v-6.7c0-0.1,0-0.2,0-0.3c0.1-0.4-0.1-0.5-0.5-0.5
				c-2.3,0-4.7,0-7,0c-0.2,0-0.3,0-0.5,0c-0.5-0.1-0.7-0.3-0.7-0.8v-3.7c0-0.6,0.3-0.9,0.9-0.9h0.6c2.2,0,4.5,0,6.8,0
				c0.4,0,0.5-0.1,0.5-0.5c0-2.3,0-4.6,0-7c0-0.1,0-0.2,0-0.4c0-0.6,0.3-0.9,0.9-1c1.2,0,2.5,0,3.7,0c0.6,0,0.8,0.3,0.8,1
				c0,1.2,0,2.4,0,3.7V70c0,0.6,0,0.6,0.6,0.6h7.1C198.7,70.5,199,70.8,199,71.6z"/>
		</g>
	</g>
	<path class="st1" d="M208.3,72.4c-0.1-4-1.3-7.6-3.6-10.8c-3.4-4.9-8-7.8-13.8-8.9c-10.1-1.7-20.1,4.4-23.2,14.2
		c-0.5,1.8-0.9,3.6-0.9,5.5c-0.2,5,1.2,9.5,4.2,13.3c-0.5,1.8-1,3.6-1.5,5.4c-0.2,0.8,0,0.8,0.6,0.6c1.8-0.5,3.7-1,5.6-1.5
		c2.5,1.8,5.4,3,8.5,3.5c0.9,0.1,1.8,0.2,2.6,0.3c0.2,0,0.3,0.1,0.5,0.1h0.5c0.2,0,0.4-0.1,0.6-0.1c9.1-0.3,17.2-6.8,19.4-15.9
		c0.3-1.3,0.4-2.6,0.5-4c0-0.2,0.1-0.4,0.1-0.6V73C208.3,72.8,208.3,72.6,208.3,72.4z M199,74.9c0,0.8-0.3,1.1-1.1,1.1
		c-2.4,0-4.8,0-7.2,0c-0.4,0-0.5,0.1-0.5,0.5c0,2.4,0,4.7,0,7.1c0,0.9-0.2,1.1-1.1,1.1H186c-1,0-1.2-0.2-1.2-1.2v-6.7
		c0-0.1,0-0.2,0-0.3c0.1-0.4-0.1-0.5-0.5-0.5c-2.3,0-4.7,0-7,0c-0.2,0-0.3,0-0.5,0c-0.5-0.1-0.7-0.3-0.7-0.8v-3.7
		c0-0.6,0.3-0.9,0.9-0.9h0.6c2.2,0,4.5,0,6.8,0c0.4,0,0.5-0.1,0.5-0.5c0-2.3,0-4.6,0-7c0-0.1,0-0.2,0-0.4c0-0.6,0.3-0.9,0.9-1
		c1.2,0,2.5,0,3.7,0c0.6,0,0.8,0.3,0.8,1c0,1.2,0,2.4,0,3.7V70c0,0.6,0,0.6,0.6,0.6h7.1c0.8,0,1.1,0.3,1.1,1.1
		C199,72.7,199,73.8,199,74.9z"/>
	<g>
		<path class="st0" d="M328.8,167.3V40.4h-42.3v169.1H455v-42.3H328.8z"/>
		<path class="st0" d="M462.2,40.4v169.1h42.3V40.4H462.2z"/>
		<path class="st0" d="M664.3,65.4c-16.5-16.7-36.2-25-59.2-25h-84.5v169.1h42.3V82.7h42.3c11.5,0,21.4,4.2,29.8,12.5
			c8.3,8.3,12.5,18.3,12.5,29.8v84.6H689V125C689,102,680.8,82.1,664.3,65.4z"/>
		<path class="st0" d="M852.8,169L758.1,125l94.7-44.1c5.2-2.4,8.7-6.2,10.7-11.6s1.8-10.8-0.6-16.4c-2.4-5.1-6.4-8.7-11.9-10.7
			c-5.6-2-10.9-1.8-16.1,0.6l-96.5,44.7v-47h-42.3v169.1h42.3v-47l96.5,44.7c5.2,2.8,10.5,3.2,16.1,1.2c5.5-2,9.5-5.8,11.9-11.3
			c2.4-5.2,2.6-10.5,0.6-16.1C861.5,175.4,857.9,171.4,852.8,169z"/>
		<path class="st0" d="M924.8,82.7h116.1V40.4H924.8c-14.7,0-27.2,5.3-37.5,15.8c-10.3,10.5-15.5,22.9-15.5,37.2
			c0,14.7,5.2,27.1,15.5,37.2c10.3,10.1,22.8,15.2,37.5,15.2h63.1c2.4,0,4.7,1.1,6.8,3.3c2.2,2.2,3.3,4.7,3.3,7.4
			c0,2.8-1.1,5.2-3.3,7.1c-2.2,2-4.5,3-6.8,3H871.8v42.9h116.1c14.3,0,26.6-5.2,36.9-15.5c10.3-10.3,15.5-22.8,15.5-37.5
			c0-14.3-5.2-26.7-15.5-37.2c-10.3-10.5-22.6-15.8-36.9-15.8h-63.1c-3.2,0-5.8-1-7.7-3c-2-2-3-4.4-3-7.2
			C914.1,86.3,917.7,82.7,924.8,82.7z"/>
		<path class="st0" d="M1197,189.7c-2.7-10.2-5.3-20.5-8-30.8c-2.1,5.1-5.2,9.7-9.5,13.8c-5.9,5.8-12.7,9.5-20.2,11.2
			c11.3,3.1,22.7,6.2,33.9,9.6C1198.2,195.1,1198.1,193.6,1197,189.7z"/>
		<path class="st0" d="M1373.2,59.2c-12.3-12.5-27.2-18.8-44.7-18.8h-105.4v169.1h42.3v-42.3h63.1c17.5,0,32.3-6.2,44.7-18.5
			c12.3-12.3,18.5-27.4,18.5-45.2C1391.6,86.5,1385.5,71.7,1373.2,59.2z M1343.7,119c-4.2,4-9.2,5.9-15.2,5.9h-63.1V82.7h63.1
			c6,0,11,2.1,15.2,6.2c4.2,4.2,6.3,9.2,6.3,15.2C1350,110.1,1347.9,115.1,1343.7,119z"/>
		<path class="st0" d="M1548.8,59.2c-12.3-12.5-27.2-18.8-44.7-18.8h-105.4v169.1h42.3v-42.3h63.1c17.5,0,32.3-6.2,44.7-18.5
			c12.3-12.3,18.5-27.4,18.5-45.2C1567.3,86.5,1561.1,71.7,1548.8,59.2z M1519.4,119c-4.2,4-9.2,5.9-15.2,5.9h-63.1V82.7h63.1
			c6,0,11,2.1,15.2,6.2c4.2,4.2,6.2,9.2,6.2,15.2C1525.6,110.1,1523.5,115.1,1519.4,119z"/>
		<g>
			<path class="st1" d="M1197,189.7c-2.7-10.2-5.3-20.5-8-30.8c-2.1,5.1-5.2,9.7-9.5,13.8c-5.9,5.8-12.7,9.5-20.2,11.2
				c11.3,3.1,22.7,6.2,33.9,9.6C1198.2,195.1,1198.1,193.6,1197,189.7z"/>
			<path class="st0" d="M1191.3,65.4c-16.5-16.7-36.2-25-59.2-25c-23.4,0-43.4,8.3-59.8,25c-16.5,16.7-24.7,36.5-24.7,59.5
				c0,23.4,8.2,43.4,24.7,59.8c16.5,16.5,36.4,24.7,59.8,24.7h84V125C1216,102,1207.7,82.1,1191.3,65.4z M1102,155.1
				c-8.1-8.1-12.2-18.2-12.2-30.1c0-11.5,4.1-21.4,12.2-29.8c8.1-8.3,18.2-12.5,30.1-12.5c11.5,0,21.4,4.2,29.8,12.5
				c3.2,3.1,5.7,6.5,7.7,10.1c3.2,5.9,4.8,12.5,4.8,19.6c0,11.9-4.2,21.9-12.5,30.1s-18.3,12.2-29.8,12.2c-7.3,0-14-1.5-19.9-4.6
				C1108.5,160.7,1105.1,158.2,1102,155.1z M1193.3,193.6c-11.2-3.4-22.6-6.5-33.9-9.6c7.6-1.7,14.3-5.4,20.2-11.2
				c4.2-4.1,7.4-8.7,9.5-13.8c2.7,10.2,5.3,20.5,8,30.8C1198.1,193.6,1198.2,195.1,1193.3,193.6z"/>
		</g>
	</g>
</g>
</svg>
