<?xml version="1.0" encoding="utf-8"?>
<!-- Generator: Adobe Illustrator 26.0.1, SVG Export Plug-In . SVG Version: 6.00 Build 0)  -->
<svg version="1.1" id="Layer_1" xmlns="http://www.w3.org/2000/svg" xmlns:xlink="http://www.w3.org/1999/xlink" x="0px" y="0px"
	 viewBox="0 0 1569.5 250" style="enable-background:new 0 0 1569.5 250;" xml:space="preserve">
<style type="text/css">
	.st0{fill:#1BD741;}
	.st1{fill:#FFFFFF;}
</style>
<g>
	<path class="st0" d="M163.1,127.8c-0.5-3.3-1-6.6-2.1-9.7c-1.5-4.3-3.3-8.2-5.4-11.8c-2.1-3.4-4.5-6.5-7.2-9.2
		c2.7,2.7,5.1,5.8,7.1,9.2c2.1,3.6,3.9,7.5,5.4,11.8C162,121.2,162.5,124.5,163.1,127.8l0.3,5.4L163.1,127.8z M155.5,160.8
		c0.1-0.1,0.1-0.1,0.1-0.2c0.1-0.1,0.1-0.1,0.1-0.2c0.2-0.3,0.3-0.6,0.5-0.8c0-0.1,0.1-0.2,0.1-0.2c0.2-0.4,0.5-0.8,0.7-1.3
		c0.1-0.1,0.2-0.3,0.2-0.4c0,0,0-0.1,0.1-0.1c0.1-0.2,0.2-0.5,0.4-0.7c0,0,0.1-0.1,0.1-0.2c0.1-0.2,0.2-0.5,0.4-0.7
		c0.3-0.7,0.7-1.4,1-2.1c0.2-0.4,0.3-0.7,0.5-1.1c0.3-0.7,0.5-1.3,0.8-2c0.1-0.2,0.2-0.5,0.3-0.7c0.2-0.4,0.3-0.9,0.4-1.3
		c0-0.1,0.1-0.2,0.1-0.4c0,0,0,0,0,0c0.3-0.9,0.5-1.8,0.7-2.7c0-0.1,0.1-0.2,0.1-0.4c0.1-0.3,0.1-0.6,0.2-1c0.1-0.3,0.1-0.6,0.2-0.8
		C161.1,149.8,158.8,155.5,155.5,160.8z M162.5,143.2c0.1-0.7,0.2-1.4,0.3-2.1c0-0.2,0.1-0.4,0.1-0.6
		C162.8,141.4,162.6,142.3,162.5,143.2z M107.7,146.1c0-0.1-0.1-0.3-0.1-0.5c0-0.2-0.1-0.3-0.1-0.5c0-0.1,0-0.2-0.1-0.2
		c0-0.1-0.1-0.3-0.2-0.4c0-0.1-0.1-0.3-0.2-0.4s-0.1-0.3-0.2-0.4c-0.1-0.1-0.1-0.3-0.2-0.4c-0.1-0.1-0.1-0.3-0.2-0.4c0,0,0,0,0-0.1
		c-0.1-0.2-0.2-0.4-0.4-0.6c-0.2-0.3-0.4-0.6-0.7-0.9c-0.1-0.1-0.2-0.2-0.3-0.4c3.4,3.7,3.7,9.2,0.5,13.2c-0.5,0.7-1.1,1.3-1.7,1.9
		l-2.6,2.6c-8.8,8.9-17.7,17.8-26.6,26.8c8.9-8.9,17.8-17.8,26.7-26.8c0.9-0.9,1.7-1.7,2.6-2.6c0.6-0.6,1.2-1.2,1.7-1.9
		C107.6,151.8,108.2,148.9,107.7,146.1z M90.8,213.6c3.1,3.6,3.4,9.1,0.2,13.1c-0.3,0.3-0.5,0.7-0.8,1l-18.5,18.5c0.1,0,0.1,0,0.2,0
		c6.2-6.1,12.3-12.3,18.5-18.5c0.3-0.3,0.6-0.7,0.8-1C94.4,222.8,94,217.2,90.8,213.6z M35.2,160c-1.2-4.4-4.5-7.1-8.3-7.7
		c3.7,0.6,7,3.3,8.2,7.7c0.8,3,0.1,5.9-1.7,8.4c-0.6,0.8-1.3,1.5-2,2.2c-8.6,8.6-17.2,17.1-25.7,25.8c0,0,0,0.1,0,0.1
		c8.6-8.7,17.2-17.2,25.8-25.9c0.7-0.7,1.4-1.4,2-2.2C35.3,166,36,163.2,35.2,160z"/>
	<path class="st0" d="M242.9,78.5V77c-0.1-2.1-0.4-4.1-0.7-6.2c-7.5,5.2-16.4,8.3-25.8,8.5h-3.8c-2.1-0.2-4.2-0.2-6.1-0.7
		c-7.5-1.2-14-4-19.9-8.2c-4.4,1.2-8.7,2.3-13.1,3.5c-1.4,0.5-2.1,0.5-1.4-1.4c1.2-4.2,2.3-8.4,3.5-12.6
		c-6.8-8.9-10.1-19.4-9.8-31.1c0.2-4.4,0.9-8.7,2.1-12.9c1.3-4.3,3.2-8.2,5.6-11.8c-0.8-0.1-1.6-0.2-2.4-0.3c-0.3,0-0.6-0.1-0.9-0.1
		c-0.3,0-0.7-0.1-1-0.1c-0.6,0-1.1-0.1-1.7-0.1H79.7C35.7,3.5,0,39.2,0,83.2v85.5c0,0.9,0.1,1.8,0.1,2.8v1.5
		c5.8-5.9,11.7-11.7,17.5-17.5c2.2-2.2,4.8-3.2,7.3-3.3c0.4,0,0.8,0,1.2,0c0.3,0,0.5,0,0.8,0.1c3.8,0.6,7.1,3.3,8.3,7.7
		c0.8,3.1,0.1,5.9-1.7,8.4c-0.6,0.8-1.3,1.5-2,2.2c-8.6,8.7-17.2,17.2-25.8,25.9c0,0,0,0,0-0.1c0,0,0,0.1-0.1,0.1
		c0.3,0.9,0.7,1.7,1.1,2.6c0,0.1,0.1,0.2,0.1,0.3c0.1,0.3,0.2,0.5,0.4,0.8c0.1,0.3,0.3,0.6,0.4,0.9c0.1,0.3,0.3,0.6,0.4,0.9
		c0.1,0.3,0.3,0.6,0.4,0.8c0.6,1.2,1.2,2.4,1.9,3.5c0.2,0.3,0.3,0.6,0.5,0.9c0.3,0.6,0.7,1.1,1,1.7c0.3,0.6,0.7,1.1,1.1,1.7
		c0.5,0.8,1.1,1.6,1.7,2.4c0.1,0.2,0.2,0.3,0.4,0.5c1.6,2.2,3.2,4.2,5,6.2c0.2,0.2,0.4,0.5,0.6,0.7c0.1,0.1,0.2,0.3,0.4,0.4l4.4,4.4
		c0.2,0.2,0.4,0.4,0.7,0.6c0.2,0.2,0.5,0.4,0.7,0.6c1,0.9,1.9,1.7,2.9,2.5c0.2,0.2,0.5,0.4,0.7,0.5c0.7,0.5,1.4,1.1,2.1,1.6
		c0.2,0.2,0.4,0.3,0.6,0.4c0.6,0.4,1.2,0.9,1.8,1.3c0.2,0.2,0.4,0.3,0.6,0.4c0.9,0.6,1.8,1.2,2.7,1.7c0.3,0.2,0.5,0.3,0.8,0.5
		c0.3,0.2,0.6,0.4,0.9,0.5c0.3,0.2,0.6,0.3,0.9,0.5c1.2,0.7,2.4,1.3,3.6,1.9c0.3,0.1,0.6,0.3,0.8,0.4c0.3,0.1,0.6,0.3,0.9,0.4
		c0.6,0.3,1.2,0.5,1.8,0.8c0.3,0.1,0.6,0.3,0.9,0.4c8.9-8.8,17.7-17.7,26.5-26.5c3.9-3.9,8.6-4.7,12.9-2.3c0.7,0.4,1.3,0.8,1.8,1.3
		c0,0,0,0,0,0c0.2,0.1,0.3,0.3,0.5,0.5c0.1,0.1,0.2,0.2,0.3,0.4c3.2,3.6,3.5,9.2,0.5,13.1c-0.2,0.3-0.5,0.7-0.8,1
		c-6.2,6.2-12.3,12.4-18.5,18.5c-0.1,0-0.1,0-0.2,0c0,0,0,0,0,0c0.3,0,0.6,0.1,0.9,0.1c0.3,0,0.7,0.1,1,0.1c0.6,0,1.1,0.1,1.7,0.1
		h87.8c44,0,79.7-35.7,79.7-79.7V83.2c0.1-0.4,0.1-0.7,0.1-1v-0.9C243,80.5,242.9,79.5,242.9,78.5z M74.7,185.5
		c-8.9,8.9-17.8,17.8-26.7,26.8c-1.9,1.9-3.9,3.2-6.7,3.7c-0.2,0-0.4,0.1-0.6,0.1c-0.5,0-0.9,0.1-1.4,0.1c-3.6-0.2-6.8-1.9-8.7-5.7
		c-1.8-3.8-1.4-7.4,1.1-10.8c0.5-0.6,1-1.2,1.6-1.8c18-18.1,36.1-36.1,54.1-54.2l2.2-2.2c4.6-4.6,10.3-5,14.7-1.2
		c0.2,0.1,0.3,0.2,0.4,0.4c0.1,0.1,0.2,0.2,0.4,0.4c0.1,0.1,0.2,0.2,0.3,0.4c0.2,0.3,0.5,0.6,0.7,0.9c0.1,0.2,0.3,0.4,0.4,0.6
		c0,0,0,0,0,0.1c0.1,0.1,0.2,0.3,0.2,0.4c0.1,0.1,0.1,0.3,0.2,0.4c0.1,0.1,0.1,0.3,0.2,0.4s0.1,0.3,0.2,0.4c0.1,0.1,0.1,0.3,0.2,0.4
		c0,0.1,0,0.2,0.1,0.2c0,0.2,0.1,0.3,0.1,0.5c0,0.1,0.1,0.3,0.1,0.5c0.5,2.8-0.1,5.8-2,8.2c-0.5,0.7-1.1,1.3-1.7,1.9
		c-0.9,0.9-1.7,1.7-2.6,2.6C92.5,167.7,83.6,176.6,74.7,185.5z M163.2,137.2c0,0.6-0.1,1.2-0.2,1.7c-0.1,0.5-0.1,1-0.2,1.5
		c0,0.2,0,0.4-0.1,0.6c-0.1,0.7-0.2,1.4-0.3,2.1c0,0,0,0,0,0c0,0.1,0,0.2-0.1,0.3c-0.1,0.3-0.1,0.6-0.2,0.8c-0.1,0.3-0.1,0.6-0.2,1
		c0,0.1,0,0.3-0.1,0.4c-0.2,0.9-0.5,1.8-0.7,2.7c0,0,0,0,0,0c0,0.1-0.1,0.2-0.1,0.4c-0.1,0.4-0.3,0.9-0.4,1.3
		c-0.1,0.2-0.2,0.5-0.3,0.7c-0.2,0.7-0.5,1.4-0.8,2c-0.1,0.4-0.3,0.7-0.5,1.1c-0.3,0.7-0.6,1.4-1,2.1c-0.1,0.2-0.2,0.5-0.4,0.7
		c0,0.1,0,0.1-0.1,0.2c-0.1,0.2-0.2,0.5-0.4,0.7c0,0,0,0.1-0.1,0.1c-0.1,0.1-0.1,0.3-0.2,0.4c-0.2,0.4-0.5,0.8-0.7,1.3
		c0,0.1-0.1,0.2-0.1,0.2c-0.2,0.3-0.3,0.5-0.5,0.8c0,0.1-0.1,0.1-0.1,0.2c0,0.1-0.1,0.1-0.1,0.2c-0.1,0.2-0.2,0.3-0.3,0.5
		c-0.2,0.3-0.3,0.5-0.5,0.8c-1.9,2.7-4,5.3-6.5,7.8c-9.4,9.5-18.8,18.9-28.2,28.2c-0.2,0.2-0.5,0.4-0.7,0.6c-1,0.9-2.1,1.5-3.1,2
		c-0.5,0.2-1,0.4-1.5,0.5c0,0-0.1,0-0.1,0c-0.2,0.1-0.5,0.1-0.8,0.2c-4.2,0.8-8.4-1.1-10.5-5.2c-0.1-0.2-0.2-0.5-0.3-0.7
		c0,0,0,0,0,0c-0.2-0.5-0.5-1.1-0.6-1.8c-0.1-0.4-0.2-0.9-0.3-1.3c-0.3-2.5,0.3-5,2-7.1c0.6-0.8,1.3-1.5,2-2.2
		c5.4-5.4,10.8-10.8,16.2-16.3c3.8-3.8,7.5-7.6,11.3-11.3c2.9-2.9,5.1-6.2,6.7-9.8c2.6-6,3.3-12.5,2.1-18.7
		c-0.1-0.3-0.1-0.6-0.2-0.8c-0.1-0.3-0.2-0.7-0.3-1c-0.1-0.4-0.2-0.9-0.4-1.3c-0.1-0.4-0.3-0.8-0.5-1.3c-0.6-1.5-1.3-3.1-2.2-4.5
		c-0.4-0.6-0.8-1.2-1.2-1.9c-0.6-0.9-1.2-1.8-1.9-2.5c-0.2-0.2-0.4-0.5-0.6-0.7c-6.6-7.5-16-11-25.3-10.3c-0.4,0-0.8,0.1-1.2,0.1
		c-0.4,0-0.8,0.1-1.2,0.2c-0.4,0.1-0.8,0.1-1.2,0.2c-1.2,0.2-2.3,0.5-3.5,0.9c-4.5,1.5-8.9,4.1-12.7,7.8c-3.4,3.4-6.8,6.8-10.2,10.1
		c-6,6-12,12-17.9,18c-3.8,3.8-8.5,4.6-12.8,2.2c-5.4-3-6.9-10.3-3-15.2c0.3-0.3,0.5-0.7,0.8-1c10.6-10.2,20.7-21,31.6-30.9
		c3.1-2.9,6.5-5.3,9.9-7.2c9.3-5.1,19.8-6.8,31.1-5c0.4,0.1,0.9,0.1,1.3,0.2c8,1.4,14.9,4.2,20.8,8.2c2.5,1.7,4.7,3.6,6.8,5.8
		c2.7,2.7,5.1,5.8,7.2,9.2c2.1,3.6,3.9,7.5,5.4,11.8c1.1,3.1,1.6,6.4,2.1,9.7l0.3,5.4C163.4,134.6,163.3,135.9,163.2,137.2z
		 M227.9,36.7c-0.5-0.6-0.9-1.3-1.4-1.9c-0.2-0.3-0.4-0.5-0.6-0.8c-0.2-0.3-0.4-0.5-0.6-0.8c-1.1-1.3-2.2-2.7-3.4-3.9l-0.5-0.5
		c-0.7-0.8-1.5-1.5-2.2-2.3c-0.2-0.2-0.3-0.3-0.5-0.5c-0.6-0.6-1.2-1.2-1.9-1.7l-0.5-0.5c-1.9-1.7-3.8-3.3-5.9-4.8
		c-0.2-0.1-0.3-0.2-0.5-0.4c-0.3-0.2-0.7-0.5-1-0.8c-0.3-0.2-0.5-0.4-0.7-0.5v5.9c0,0.6-0.1,0.9-0.4,1c-0.2,0.3-0.5,0.4-1,0.4h-17.1
		c-1.4,0-2.1,0.7-2.1,2.1v8.4c0,1.2,0.5,1.6,1.6,1.9h17.6c0.9,0,1.4,0.2,1.2,1.2v16.4c0,2.3,0.5,2.8,2.8,2.8h7.2
		c2.1,0,2.6-0.5,2.6-2.6V38.2c0-0.9,0.2-1.2,1.2-1.2h6.5C228.1,36.9,228,36.8,227.9,36.7z"/>
	<g>
		<path class="st1" d="M90.8,213.6c-0.1-0.1-0.2-0.2-0.3-0.4c-0.2-0.2-0.3-0.3-0.5-0.5c0,0,0,0,0,0c-0.5-0.5-1.1-0.9-1.7-1.2
			c-4.4-2.4-9-1.7-12.9,2.3c-8.9,8.8-17.7,17.7-26.5,26.5c7.2,3,14.9,5,22.9,5.8c0.1,0,0.1,0,0.2,0c6.2-6.1,12.3-12.3,18.5-18.5
			c0.3-0.3,0.6-0.7,0.8-1C94.4,222.8,94,217.2,90.8,213.6z M35.2,160c-1.2-4.4-4.5-7.1-8.3-7.7c-0.2,0-0.5-0.1-0.8-0.1
			c-0.4,0-0.8,0-1.2,0c-2.5,0.1-5.1,1.2-7.2,3.3C11.8,161.3,6,167.2,0.2,173c0.6,8.3,2.5,16.2,5.5,23.4c0,0,0,0.1,0,0.1
			c8.6-8.7,17.2-17.2,25.8-25.9c0.7-0.7,1.4-1.4,2-2.2C35.3,166,36,163.2,35.2,160z"/>
		<path class="st1" d="M163.4,133.3c0,1.3-0.1,2.7-0.2,4c-0.7,9.2-3.5,17.5-8.6,24.9c-1.9,2.7-4,5.3-6.5,7.8
			c-9.4,9.5-18.8,18.9-28.2,28.2c-0.2,0.2-0.5,0.4-0.7,0.6c-1,0.8-2,1.5-3.1,2c-0.5,0.2-1,0.4-1.5,0.5c0,0-0.1,0-0.1,0
			c-4.7,1.2-9.5-1-11.6-5.7c0,0,0,0,0,0c-0.2-0.5-0.4-1.1-0.6-1.8c-0.1-0.4-0.2-0.9-0.3-1.3c-0.3-2.5,0.4-5,2-7.1
			c0.6-0.8,1.3-1.5,2-2.2c5.4-5.4,10.8-10.8,16.2-16.3l11.3-11.3c2.9-2.9,5.1-6.2,6.7-9.8c3.3-7.4,3.6-15.6,0.8-23.1
			c-0.6-1.5-1.3-3.1-2.2-4.5c-0.4-0.6-0.8-1.2-1.2-1.8c-6.6-9.7-17.3-14.4-27.9-13.5c-0.4,0-0.8,0.1-1.2,0.1c-0.4,0-0.8,0.1-1.2,0.2
			c-0.4,0.1-0.8,0.1-1.2,0.2c-1.2,0.2-2.4,0.5-3.5,0.9c-4.5,1.5-8.9,4.1-12.7,7.8c-3.4,3.4-6.8,6.8-10.2,10.1c-6,6-12,12-17.9,18
			c-3.8,3.8-8.5,4.6-12.8,2.2c-5.4-3-6.9-10.3-3-15.2c0.3-0.3,0.5-0.7,0.8-1c10.6-10.2,20.7-21,31.6-30.9c3.1-2.9,6.5-5.3,9.9-7.2
			c9.3-5.1,19.8-6.8,31.1-5c0.4,0.1,0.9,0.1,1.3,0.2c8,1.4,14.9,4.2,20.8,8.2c2.5,1.7,4.7,3.6,6.8,5.8c2.7,2.7,5.1,5.8,7.2,9.2
			c2.1,3.6,3.9,7.5,5.4,11.8c1.1,3.1,1.6,6.4,2.1,9.7L163.4,133.3z"/>
		<path class="st1" d="M105.7,154.3c-0.5,0.7-1.1,1.3-1.7,1.9c-0.9,0.9-1.7,1.7-2.6,2.6c-8.9,8.9-17.8,17.8-26.7,26.8
			c-8.9,8.9-17.8,17.8-26.8,26.8c-2,2-4.2,3.4-7.2,3.8c-0.5,0-0.9,0.1-1.4,0.1c-3.6-0.2-6.8-1.9-8.7-5.7c-1.8-3.8-1.4-7.4,1.1-10.8
			c0.5-0.6,1-1.2,1.6-1.8c18-18.1,36.1-36.1,54.1-54.2c0.7-0.7,1.5-1.5,2.2-2.2c4.6-4.6,10.3-5,14.7-1.2c0.2,0.1,0.3,0.2,0.4,0.4
			C108.5,144.3,109,150.1,105.7,154.3z"/>
	</g>
	<g>
		<path class="st1" d="M227.9,36.7c-0.5-0.6-0.9-1.3-1.4-1.9c-0.2-0.3-0.4-0.5-0.6-0.8c-0.2-0.3-0.4-0.5-0.6-0.8
			c-1.1-1.3-2.2-2.7-3.4-3.9l-0.5-0.5c-0.7-0.8-1.5-1.5-2.2-2.3c-0.2-0.2-0.3-0.3-0.5-0.5c-0.6-0.6-1.2-1.2-1.9-1.7l-0.5-0.5
			c-1.9-1.7-3.8-3.3-5.9-4.8c-0.2-0.1-0.3-0.2-0.5-0.4c-0.3-0.2-0.7-0.5-1-0.8c-0.3-0.2-0.5-0.4-0.7-0.5v5.9c0,0.6-0.1,0.9-0.4,1
			c-0.2,0.3-0.5,0.4-1,0.4h-17.1c-1.4,0-2.1,0.7-2.1,2.1v8.4c0,1.2,0.5,1.6,1.6,1.9h17.6c0.9,0,1.4,0.2,1.2,1.2v16.4
			c0,2.3,0.5,2.8,2.8,2.8h7.2c2.1,0,2.6-0.5,2.6-2.6V38.2c0-0.9,0.2-1.2,1.2-1.2h6.5C228.1,36.9,228,36.8,227.9,36.7z M227.9,36.7
			c-0.5-0.6-0.9-1.3-1.4-1.9c-0.2-0.3-0.4-0.5-0.6-0.8c-0.2-0.3-0.4-0.5-0.6-0.8c-1.1-1.3-2.2-2.7-3.4-3.9l-0.5-0.5
			c-0.7-0.8-1.5-1.5-2.2-2.3c-0.2-0.2-0.3-0.3-0.5-0.5c-0.6-0.6-1.2-1.2-1.9-1.7l-0.5-0.5c-1.9-1.7-3.8-3.3-5.9-4.8
			c-0.2-0.1-0.3-0.2-0.5-0.4c-0.3-0.2-0.7-0.5-1-0.8c-0.3-0.2-0.5-0.4-0.7-0.5v5.9c0,0.6-0.1,0.9-0.4,1c-0.2,0.3-0.5,0.4-1,0.4
			h-17.1c-1.4,0-2.1,0.7-2.1,2.1v8.4c0,1.2,0.5,1.6,1.6,1.9h17.6c0.9,0,1.4,0.2,1.2,1.2v16.4c0,2.3,0.5,2.8,2.8,2.8h7.2
			c2.1,0,2.6-0.5,2.6-2.6V38.2c0-0.9,0.2-1.2,1.2-1.2h6.5C228.1,36.9,228,36.8,227.9,36.7z M227.9,36.7c-0.5-0.6-0.9-1.3-1.4-1.9
			c-0.2-0.3-0.4-0.5-0.6-0.8c-0.2-0.3-0.4-0.5-0.6-0.8c-1.1-1.3-2.2-2.7-3.4-3.9l-0.5-0.5c-0.7-0.8-1.5-1.5-2.2-2.3
			c-0.2-0.2-0.3-0.3-0.5-0.5c-0.6-0.6-1.2-1.2-1.9-1.7l-0.5-0.5c-1.9-1.7-3.8-3.3-5.9-4.8c-0.2-0.1-0.3-0.2-0.5-0.4
			c-0.3-0.2-0.7-0.5-1-0.8c-0.3-0.2-0.5-0.4-0.7-0.5v5.9c0,0.6-0.1,0.9-0.4,1c-0.2,0.3-0.5,0.4-1,0.4h-17.1c-1.4,0-2.1,0.7-2.1,2.1
			v8.4c0,1.2,0.5,1.6,1.6,1.9h17.6c0.9,0,1.4,0.2,1.2,1.2v16.4c0,2.3,0.5,2.8,2.8,2.8h7.2c2.1,0,2.6-0.5,2.6-2.6V38.2
			c0-0.9,0.2-1.2,1.2-1.2h6.5C228.1,36.9,228,36.8,227.9,36.7z M227.9,36.7c-0.5-0.6-0.9-1.3-1.4-1.9c-0.2-0.3-0.4-0.5-0.6-0.8
			c-0.2-0.3-0.4-0.5-0.6-0.8c-1.1-1.3-2.2-2.7-3.4-3.9l-0.5-0.5c-0.7-0.8-1.5-1.5-2.2-2.3c-0.2-0.2-0.3-0.3-0.5-0.5
			c-0.6-0.6-1.2-1.2-1.9-1.7l-0.5-0.5c-1.9-1.7-3.8-3.3-5.9-4.8c-0.2-0.1-0.3-0.2-0.5-0.4c-0.3-0.2-0.7-0.5-1-0.8
			c-0.3-0.2-0.5-0.4-0.7-0.5v5.9c0,0.6-0.1,0.9-0.4,1c-0.2,0.3-0.5,0.4-1,0.4h-17.1c-1.4,0-2.1,0.7-2.1,2.1v8.4
			c0,1.2,0.5,1.6,1.6,1.9h17.6c0.9,0,1.4,0.2,1.2,1.2v16.4c0,2.3,0.5,2.8,2.8,2.8h7.2c2.1,0,2.6-0.5,2.6-2.6V38.2
			c0-0.9,0.2-1.2,1.2-1.2h6.5C228.1,36.9,228,36.8,227.9,36.7z M227.9,36.7c-0.5-0.6-0.9-1.3-1.4-1.9c-0.2-0.3-0.4-0.5-0.6-0.8
			c-0.2-0.3-0.4-0.5-0.6-0.8c-1.1-1.3-2.2-2.7-3.4-3.9l-0.5-0.5c-0.7-0.8-1.5-1.5-2.2-2.3c-0.2-0.2-0.3-0.3-0.5-0.5
			c-0.6-0.6-1.2-1.2-1.9-1.7l-0.5-0.5c-1.9-1.7-3.8-3.3-5.9-4.8c-0.2-0.1-0.3-0.2-0.5-0.4c-0.3-0.2-0.7-0.5-1-0.8
			c-0.3-0.2-0.5-0.4-0.7-0.5v5.9c0,0.6-0.1,0.9-0.4,1c-0.2,0.3-0.5,0.4-1,0.4h-17.1c-1.4,0-2.1,0.7-2.1,2.1v8.4
			c0,1.2,0.5,1.6,1.6,1.9h17.6c0.9,0,1.4,0.2,1.2,1.2v16.4c0,2.3,0.5,2.8,2.8,2.8h7.2c2.1,0,2.6-0.5,2.6-2.6V38.2
			c0-0.9,0.2-1.2,1.2-1.2h6.5C228.1,36.9,228,36.8,227.9,36.7z M242.9,78.5V77c-0.1-2.1-0.4-4.1-0.7-6.2c-7.5,5.2-16.4,8.3-25.8,8.5
			h-3.8c-2.1-0.2-4.2-0.2-6.1-0.7c-7.5-1.2-14-4-19.9-8.2c-4.4,1.2-8.7,2.3-13.1,3.5c-1.4,0.5-2.1,0.5-1.4-1.4
			c1.2-4.2,2.3-8.4,3.5-12.6c-6.8-8.9-10.1-19.4-9.8-31.1c0.2-4.4,0.9-8.7,2.1-12.9c1.3-4.3,3.2-8.2,5.6-11.8
			c-0.8-0.1-1.6-0.2-2.4-0.3c-0.3,0-0.6-0.1-0.9-0.1c-0.3,0-0.7-0.1-1-0.1c-0.6,0-1.1-0.1-1.7-0.1h-10.1c-3,6.1-5,12.7-5.9,19.7
			c-1.9,15.4,1.4,29.7,10.1,42.6c0.7,1.2,0.9,2.3,0.5,3.5c-1.6,5.8-3.3,11.9-5.2,18c-0.5,1.9,0,1.9,1.4,1.4c6.1-1.6,12.2-3,18.3-4.7
			c1.4-0.5,2.8-0.2,4.2,0.5c16.4,9.8,33.7,12.2,52,6.8c3.5-1.1,6.9-2.5,10.1-4.1v-4c0.1-0.4,0.1-0.7,0.1-1v-0.9
			C243,80.5,242.9,79.5,242.9,78.5z M227.9,36.7c-0.5-0.6-0.9-1.3-1.4-1.9c-0.2-0.3-0.4-0.5-0.6-0.8c-0.2-0.3-0.4-0.5-0.6-0.8
			c-1.1-1.3-2.2-2.7-3.4-3.9l-0.5-0.5c-0.7-0.8-1.5-1.5-2.2-2.3c-0.2-0.2-0.3-0.3-0.5-0.5c-0.6-0.6-1.2-1.2-1.9-1.7l-0.5-0.5
			c-1.9-1.7-3.8-3.3-5.9-4.8c-0.2-0.1-0.3-0.2-0.5-0.4c-0.3-0.2-0.7-0.5-1-0.8c-0.3-0.2-0.5-0.4-0.7-0.5v5.9c0,0.6-0.1,0.9-0.4,1
			c-0.2,0.3-0.5,0.4-1,0.4h-17.1c-1.4,0-2.1,0.7-2.1,2.1v8.4c0,1.2,0.5,1.6,1.6,1.9h17.6c0.9,0,1.4,0.2,1.2,1.2v16.4
			c0,2.3,0.5,2.8,2.8,2.8h7.2c2.1,0,2.6-0.5,2.6-2.6V38.2c0-0.9,0.2-1.2,1.2-1.2h6.5C228.1,36.9,228,36.8,227.9,36.7z M227.9,36.7
			c-0.5-0.6-0.9-1.3-1.4-1.9c-0.2-0.3-0.4-0.5-0.6-0.8c-0.2-0.3-0.4-0.5-0.6-0.8c-1.1-1.3-2.2-2.7-3.4-3.9l-0.5-0.5
			c-0.7-0.8-1.5-1.5-2.2-2.3c-0.2-0.2-0.3-0.3-0.5-0.5c-0.6-0.6-1.2-1.2-1.9-1.7l-0.5-0.5c-1.9-1.7-3.8-3.3-5.9-4.8
			c-0.2-0.1-0.3-0.2-0.5-0.4c-0.3-0.2-0.7-0.5-1-0.8c-0.3-0.2-0.5-0.4-0.7-0.5v5.9c0,0.6-0.1,0.9-0.4,1c-0.2,0.3-0.5,0.4-1,0.4
			h-17.1c-1.4,0-2.1,0.7-2.1,2.1v8.4c0,1.2,0.5,1.6,1.6,1.9h17.6c0.9,0,1.4,0.2,1.2,1.2v16.4c0,2.3,0.5,2.8,2.8,2.8h7.2
			c2.1,0,2.6-0.5,2.6-2.6V38.2c0-0.9,0.2-1.2,1.2-1.2h6.5C228.1,36.9,228,36.8,227.9,36.7z M227.9,36.7c-0.5-0.6-0.9-1.3-1.4-1.9
			c-0.2-0.3-0.4-0.5-0.6-0.8c-0.2-0.3-0.4-0.5-0.6-0.8c-1.1-1.3-2.2-2.7-3.4-3.9l-0.5-0.5c-0.7-0.8-1.5-1.5-2.2-2.3
			c-0.2-0.2-0.3-0.3-0.5-0.5c-0.6-0.6-1.2-1.2-1.9-1.7l-0.5-0.5c-1.9-1.7-3.8-3.3-5.9-4.8c-0.2-0.1-0.3-0.2-0.5-0.4
			c-0.3-0.2-0.7-0.5-1-0.8c-0.3-0.2-0.5-0.4-0.7-0.5v5.9c0,0.6-0.1,0.9-0.4,1c-0.2,0.3-0.5,0.4-1,0.4h-17.1c-1.4,0-2.1,0.7-2.1,2.1
			v8.4c0,1.2,0.5,1.6,1.6,1.9h17.6c0.9,0,1.4,0.2,1.2,1.2v16.4c0,2.3,0.5,2.8,2.8,2.8h7.2c2.1,0,2.6-0.5,2.6-2.6V38.2
			c0-0.9,0.2-1.2,1.2-1.2h6.5C228.1,36.9,228,36.8,227.9,36.7z M227.9,36.7c-0.5-0.6-0.9-1.3-1.4-1.9c-0.2-0.3-0.4-0.5-0.6-0.8
			c-0.2-0.3-0.4-0.5-0.6-0.8c-1.1-1.3-2.2-2.7-3.4-3.9l-0.5-0.5c-0.7-0.8-1.5-1.5-2.2-2.3c-0.2-0.2-0.3-0.3-0.5-0.5
			c-0.6-0.6-1.2-1.2-1.9-1.7l-0.5-0.5c-1.9-1.7-3.8-3.3-5.9-4.8c-0.2-0.1-0.3-0.2-0.5-0.4c-0.3-0.2-0.7-0.5-1-0.8
			c-0.3-0.2-0.5-0.4-0.7-0.5v5.9c0,0.6-0.1,0.9-0.4,1c-0.2,0.3-0.5,0.4-1,0.4h-17.1c-1.4,0-2.1,0.7-2.1,2.1v8.4
			c0,1.2,0.5,1.6,1.6,1.9h17.6c0.9,0,1.4,0.2,1.2,1.2v16.4c0,2.3,0.5,2.8,2.8,2.8h7.2c2.1,0,2.6-0.5,2.6-2.6V38.2
			c0-0.9,0.2-1.2,1.2-1.2h6.5C228.1,36.9,228,36.8,227.9,36.7z M227.9,36.7c-0.5-0.6-0.9-1.3-1.4-1.9c-0.2-0.3-0.4-0.5-0.6-0.8
			c-0.2-0.3-0.4-0.5-0.6-0.8c-1.1-1.3-2.2-2.7-3.4-3.9l-0.5-0.5c-0.7-0.8-1.5-1.5-2.2-2.3c-0.2-0.2-0.3-0.3-0.5-0.5
			c-0.6-0.6-1.2-1.2-1.9-1.7l-0.5-0.5c-1.9-1.7-3.8-3.3-5.9-4.8c-0.2-0.1-0.3-0.2-0.5-0.4c-0.3-0.2-0.7-0.5-1-0.8
			c-0.3-0.2-0.5-0.4-0.7-0.5v5.9c0,0.6-0.1,0.9-0.4,1c-0.2,0.3-0.5,0.4-1,0.4h-17.1c-1.4,0-2.1,0.7-2.1,2.1v8.4
			c0,1.2,0.5,1.6,1.6,1.9h17.6c0.9,0,1.4,0.2,1.2,1.2v16.4c0,2.3,0.5,2.8,2.8,2.8h7.2c2.1,0,2.6-0.5,2.6-2.6V38.2
			c0-0.9,0.2-1.2,1.2-1.2h6.5C228.1,36.9,228,36.8,227.9,36.7z M227.9,36.7c-0.5-0.6-0.9-1.3-1.4-1.9c-0.2-0.3-0.4-0.5-0.6-0.8
			c-0.2-0.3-0.4-0.5-0.6-0.8c-1.1-1.3-2.2-2.7-3.4-3.9l-0.5-0.5c-0.7-0.8-1.5-1.5-2.2-2.3c-0.2-0.2-0.3-0.3-0.5-0.5
			c-0.6-0.6-1.2-1.2-1.9-1.7l-0.5-0.5c-1.9-1.7-3.8-3.3-5.9-4.8c-0.2-0.1-0.3-0.2-0.5-0.4c-0.3-0.2-0.7-0.5-1-0.8
			c-0.3-0.2-0.5-0.4-0.7-0.5v5.9c0,0.6-0.1,0.9-0.4,1c-0.2,0.3-0.5,0.4-1,0.4h-17.1c-1.4,0-2.1,0.7-2.1,2.1v8.4
			c0,1.2,0.5,1.6,1.6,1.9h17.6c0.9,0,1.4,0.2,1.2,1.2v16.4c0,2.3,0.5,2.8,2.8,2.8h7.2c2.1,0,2.6-0.5,2.6-2.6V38.2
			c0-0.9,0.2-1.2,1.2-1.2h6.5C228.1,36.9,228,36.8,227.9,36.7z"/>
		<path class="st0" d="M242.2,70.9c-7.5,5.2-16.4,8.3-25.8,8.5h-3.8c-2.1-0.2-4.2-0.2-6.1-0.7c-7.5-1.2-14-4-19.9-8.2
			c-4.4,1.2-8.7,2.3-13.1,3.5c-1.4,0.5-2.1,0.5-1.4-1.4c1.2-4.2,2.3-8.4,3.5-12.6c-6.8-8.9-10.1-19.4-9.8-31.1
			c0.2-4.4,0.9-8.7,2.1-12.9c1.3-4.3,3.2-8.2,5.6-11.8c7.2,0.9,14.2,2.8,20.7,5.5c0.3,0.1,0.6,0.3,0.9,0.4c0.3,0.1,0.6,0.3,0.9,0.4
			c0.3,0.1,0.6,0.3,0.9,0.4c0.3,0.1,0.5,0.2,0.7,0.3c0.4,0.2,0.8,0.4,1.2,0.6c0.6,0.3,1.1,0.6,1.7,0.9c0.6,0.3,1.2,0.7,1.8,1
			c0.3,0.2,0.5,0.3,0.8,0.5c1.7,0.9,3.3,1.9,4.9,3c0,0,0.1,0.1,0.1,0.1c0,0,0.1,0,0.1,0v5.9c0,0.6-0.1,0.9-0.4,1
			c-0.2,0.3-0.5,0.4-1,0.4h-17.1c-1.4,0-2.1,0.7-2.1,2.1v8.4c0,1.2,0.5,1.6,1.6,1.9h17.6c0.9,0,1.4,0.2,1.2,1.2v16.4
			c0,2.3,0.5,2.8,2.8,2.8h7.2c2.1,0,2.6-0.5,2.6-2.6V38.2c0-0.9,0.2-1.2,1.2-1.2h6.5c0,0,0.1,0.1,0.1,0.1c0,0,0,0.1,0.1,0.1
			c1.3,1.8,2.5,3.6,3.6,5.5c0.1,0.2,0.2,0.3,0.3,0.5s0.2,0.3,0.3,0.5c0.9,1.5,1.7,3,2.4,4.5c0.2,0.3,0.3,0.6,0.4,0.8
			c0.1,0.3,0.3,0.6,0.4,0.9c0.2,0.3,0.3,0.5,0.4,0.8c0.2,0.3,0.3,0.7,0.5,1.1c0.1,0.3,0.2,0.5,0.3,0.8c0.2,0.3,0.3,0.6,0.4,0.9
			C239.6,59,241.3,64.8,242.2,70.9z"/>
		<g>
			<path class="st1" d="M228.2,37h-6.5c-0.9,0-1.2,0.2-1.2,1.2v16.6c0,2.1-0.5,2.6-2.6,2.6h-7.2c-2.3,0-2.8-0.5-2.8-2.8V38.2
				c0.2-0.9-0.2-1.2-1.2-1.2h-17.6c-1.2-0.2-1.6-0.7-1.6-1.9v-8.4c0-1.4,0.7-2.1,2.1-2.1h17.1c0.6,0,0.9-0.1,1-0.4
				c0.3-0.1,0.4-0.5,0.4-1v-5.9c0.3,0.1,0.5,0.3,0.7,0.5c0.3,0.3,0.7,0.6,1,0.8c0.2,0.2,0.3,0.3,0.5,0.4c2.1,1.5,4,3.1,5.9,4.8
				l0.5,0.5c0.7,0.5,1.3,1.1,1.9,1.7c0.2,0.2,0.3,0.3,0.5,0.5c0.7,0.8,1.5,1.5,2.2,2.3l0.5,0.5c1.2,1.2,2.3,2.6,3.4,3.9
				c0.2,0.3,0.4,0.5,0.6,0.8c0.2,0.3,0.4,0.5,0.6,0.8c0.5,0.6,0.9,1.3,1.4,1.9C228,36.8,228.1,36.9,228.2,37z"/>
		</g>
	</g>
</g>
<g>
	<path class="st1" d="M328.8,167.3V40.4h-42.3v169.1H455v-42.3H328.8V167.3z"/>
	<path class="st1" d="M462.2,40.4v169.1h42.3V40.4H462.2z"/>
	<path class="st1" d="M664.3,65.4c-16.5-16.7-36.2-25-59.2-25h-84.5v169.1h42.3V82.7h42.3c11.5,0,21.4,4.2,29.8,12.5
		c8.3,8.3,12.5,18.3,12.5,29.8v84.6H689V125C689,102,680.8,82.1,664.3,65.4z"/>
	<path class="st1" d="M852.8,169l-94.7-44l94.7-44.1c5.2-2.4,8.7-6.2,10.7-11.6s1.8-10.8-0.6-16.4c-2.4-5.1-6.4-8.7-11.9-10.7
		c-5.6-2-10.9-1.8-16.1,0.6l-96.5,44.7v-47h-42.3v169.1h42.3v-47l96.5,44.7c5.2,2.8,10.5,3.2,16.1,1.2c5.5-2,9.5-5.8,11.9-11.3
		c2.4-5.2,2.6-10.5,0.6-16.1C861.5,175.4,857.9,171.4,852.8,169z"/>
	<path class="st1" d="M924.8,82.7h116.1V40.4H924.8c-14.7,0-27.2,5.3-37.5,15.8s-15.5,22.9-15.5,37.2c0,14.7,5.2,27.1,15.5,37.2
		s22.8,15.2,37.5,15.2h63.1c2.4,0,4.7,1.1,6.8,3.3c2.2,2.2,3.3,4.7,3.3,7.4c0,2.8-1.1,5.2-3.3,7.1c-2.2,2-4.5,3-6.8,3H871.8v42.9
		h116.1c14.3,0,26.6-5.2,36.9-15.5c10.3-10.3,15.5-22.8,15.5-37.5c0-14.3-5.2-26.7-15.5-37.2c-10.3-10.5-22.6-15.8-36.9-15.8h-63.1
		c-3.2,0-5.8-1-7.7-3c-2-2-3-4.4-3-7.2C914.1,86.3,917.7,82.7,924.8,82.7z"/>
	<path class="st1" d="M1197,189.7c-2.7-10.2-5.3-20.5-8-30.8c-2.1,5.1-5.2,9.7-9.5,13.8c-5.9,5.8-12.7,9.5-20.2,11.2
		c11.3,3.1,22.7,6.2,33.9,9.6C1198.2,195.1,1198.1,193.6,1197,189.7z"/>
	<path class="st1" d="M1373.2,59.2c-12.3-12.5-27.2-18.8-44.7-18.8h-105.4v169.1h42.3v-42.3h63.1c17.5,0,32.3-6.2,44.7-18.5
		c12.3-12.3,18.5-27.4,18.5-45.2C1391.6,86.5,1385.5,71.7,1373.2,59.2z M1343.7,119c-4.2,4-9.2,5.9-15.2,5.9h-63.1V82.7h63.1
		c6,0,11,2.1,15.2,6.2c4.2,4.2,6.3,9.2,6.3,15.2S1347.9,115.1,1343.7,119z"/>
	<path class="st1" d="M1548.8,59.2c-12.3-12.5-27.2-18.8-44.7-18.8h-105.4v169.1h42.3v-42.3h63.1c17.5,0,32.3-6.2,44.7-18.5
		c12.3-12.3,18.5-27.4,18.5-45.2C1567.3,86.5,1561.1,71.7,1548.8,59.2z M1519.4,119c-4.2,4-9.2,5.9-15.2,5.9h-63.1V82.7h63.1
		c6,0,11,2.1,15.2,6.2c4.2,4.2,6.2,9.2,6.2,15.2S1523.5,115.1,1519.4,119z"/>
	<g>
		<path class="st0" d="M1197,189.7c-2.7-10.2-5.3-20.5-8-30.8c-2.1,5.1-5.2,9.7-9.5,13.8c-5.9,5.8-12.7,9.5-20.2,11.2
			c11.3,3.1,22.7,6.2,33.9,9.6C1198.2,195.1,1198.1,193.6,1197,189.7z"/>
		<path class="st1" d="M1191.3,65.4c-16.5-16.7-36.2-25-59.2-25c-23.4,0-43.4,8.3-59.8,25c-16.5,16.7-24.7,36.5-24.7,59.5
			c0,23.4,8.2,43.4,24.7,59.8c16.5,16.5,36.4,24.7,59.8,24.7h84V125C1216,102,1207.7,82.1,1191.3,65.4z M1112.2,162.6
			c-3.7-1.9-7.1-4.4-10.2-7.5c-8.1-8.1-12.2-18.2-12.2-30.1c0-11.5,4.1-21.4,12.2-29.8c8.1-8.3,18.2-12.5,30.1-12.5
			c11.5,0,21.4,4.2,29.8,12.5c3.2,3.1,5.7,6.5,7.7,10.1c3.2,5.9,4.8,12.5,4.8,19.6c0,11.9-4.2,21.9-12.5,30.1
			c-8.3,8.2-18.3,12.2-29.8,12.2C1124.8,167.2,1118.1,165.7,1112.2,162.6z M1193.3,193.6c-11.2-3.4-22.6-6.5-33.9-9.6
			c0,0,0.1,0,0.1,0h0c7.5-1.7,14.2-5.4,20-11.2c4.2-4.1,7.3-8.6,9.5-13.7v0c0,0,0-0.1,0-0.1c2.7,10.2,5.3,20.5,8,30.8
			C1198.1,193.6,1198.2,195.1,1193.3,193.6z"/>
	</g>
</g>
</svg>
