<?xml version="1.0" encoding="utf-8"?>
<!-- Generator: Adobe Illustrator 26.0.1, SVG Export Plug-In . SVG Version: 6.00 Build 0)  -->
<svg version="1.1" id="Layer_1" xmlns="http://www.w3.org/2000/svg" xmlns:xlink="http://www.w3.org/1999/xlink" x="0px" y="0px"
	 viewBox="0 0 245.9 250" style="enable-background:new 0 0 245.9 250;" xml:space="preserve">
<style type="text/css">
	.st0{fill:#1BD741;}
	.st1{fill:#FFFFFF;}
</style>
<g>
	<path class="st0" d="M164.6,127.8c-0.5-3.3-1-6.6-2.1-9.7c-1.5-4.3-3.3-8.2-5.4-11.8c-2.1-3.4-4.5-6.5-7.2-9.2
		c2.7,2.7,5.1,5.8,7.1,9.2c2.1,3.6,3.9,7.5,5.4,11.8C163.5,121.2,164,124.5,164.6,127.8l0.3,5.4L164.6,127.8z M157,160.8
		c0.1-0.1,0.1-0.1,0.1-0.2c0.1-0.1,0.1-0.1,0.1-0.2c0.2-0.3,0.3-0.6,0.5-0.8c0-0.1,0.1-0.2,0.1-0.2c0.2-0.4,0.5-0.8,0.7-1.3
		c0.1-0.1,0.2-0.3,0.2-0.4c0,0,0-0.1,0.1-0.1c0.1-0.2,0.2-0.5,0.4-0.7c0,0,0.1-0.1,0.1-0.2c0.1-0.2,0.2-0.5,0.4-0.7
		c0.3-0.7,0.7-1.4,1-2.1c0.2-0.4,0.3-0.7,0.5-1.1c0.3-0.7,0.5-1.3,0.8-2c0.1-0.2,0.2-0.5,0.3-0.7c0.2-0.4,0.3-0.9,0.4-1.3
		c0-0.1,0.1-0.2,0.1-0.4l0,0c0.3-0.9,0.5-1.8,0.7-2.7c0-0.1,0.1-0.2,0.1-0.4c0.1-0.3,0.1-0.6,0.2-1c0.1-0.3,0.1-0.6,0.2-0.8
		C162.6,149.8,160.3,155.5,157,160.8z M164,143.2c0.1-0.7,0.2-1.4,0.3-2.1c0-0.2,0.1-0.4,0.1-0.6C164.3,141.4,164.1,142.3,164,143.2
		z M109.2,146.1c0-0.1-0.1-0.3-0.1-0.5s-0.1-0.3-0.1-0.5c0-0.1,0-0.2-0.1-0.2c0-0.1-0.1-0.3-0.2-0.4c0-0.1-0.1-0.3-0.2-0.4
		s-0.1-0.3-0.2-0.4c-0.1-0.1-0.1-0.3-0.2-0.4c-0.1-0.1-0.1-0.3-0.2-0.4c0,0,0,0,0-0.1c-0.1-0.2-0.2-0.4-0.4-0.6
		c-0.2-0.3-0.4-0.6-0.7-0.9c-0.1-0.1-0.2-0.2-0.3-0.4c3.4,3.7,3.7,9.2,0.5,13.2c-0.5,0.7-1.1,1.3-1.7,1.9l-2.6,2.6
		c-8.8,8.9-17.7,17.8-26.6,26.8c8.9-8.9,17.8-17.8,26.7-26.8c0.9-0.9,1.7-1.7,2.6-2.6c0.6-0.6,1.2-1.2,1.7-1.9
		C109.1,151.8,109.7,148.9,109.2,146.1z M92.3,213.6c3.1,3.6,3.4,9.1,0.2,13.1c-0.3,0.3-0.5,0.7-0.8,1l-18.5,18.5c0.1,0,0.1,0,0.2,0
		c6.2-6.1,12.3-12.3,18.5-18.5c0.3-0.3,0.6-0.7,0.8-1C95.9,222.8,95.5,217.2,92.3,213.6z M36.7,160c-1.2-4.4-4.5-7.1-8.3-7.7
		C32.1,152.9,35.4,155.6,36.7,160c0.7,3,0,5.9-1.8,8.4c-0.6,0.8-1.3,1.5-2,2.2c-8.6,8.6-17.2,17.1-25.7,25.8v0.1
		c8.6-8.7,17.2-17.2,25.8-25.9c0.7-0.7,1.4-1.4,2-2.2C36.8,166,37.5,163.2,36.7,160z"/>
	<path class="st0" d="M244.4,78.5V77c-0.1-2.1-0.4-4.1-0.7-6.2c-7.5,5.2-16.4,8.3-25.8,8.5h-3.8c-2.1-0.2-4.2-0.2-6.1-0.7
		c-7.5-1.2-14-4-19.9-8.2c-4.4,1.2-8.7,2.3-13.1,3.5c-1.4,0.5-2.1,0.5-1.4-1.4c1.2-4.2,2.3-8.4,3.5-12.6
		c-6.8-8.9-10.1-19.4-9.8-31.1c0.2-4.4,0.9-8.7,2.1-12.9c1.3-4.3,3.2-8.2,5.6-11.8c-0.8-0.1-1.6-0.2-2.4-0.3c-0.3,0-0.6-0.1-0.9-0.1
		c-0.3,0-0.7-0.1-1-0.1c-0.6,0-1.1-0.1-1.7-0.1H81.2c-44,0-79.7,35.7-79.7,79.7v85.5c0,0.9,0.1,1.8,0.1,2.8v1.5
		c5.8-5.9,11.7-11.7,17.5-17.5c2.2-2.2,4.8-3.2,7.3-3.3c0.4,0,0.8,0,1.2,0c0.3,0,0.5,0,0.8,0.1c3.8,0.6,7.1,3.3,8.3,7.7
		c0.8,3.1,0.1,5.9-1.7,8.4c-0.6,0.8-1.3,1.5-2,2.2c-8.6,8.7-17.2,17.2-25.8,25.9c0,0,0,0,0-0.1c0,0,0,0.1-0.1,0.1
		c0.3,0.9,0.7,1.7,1.1,2.6c0,0.1,0.1,0.2,0.1,0.3c0.1,0.3,0.2,0.5,0.4,0.8c0.1,0.3,0.3,0.6,0.4,0.9c0.1,0.3,0.3,0.6,0.4,0.9
		c0.1,0.3,0.3,0.6,0.4,0.8c0.6,1.2,1.2,2.4,1.9,3.5c0.2,0.3,0.3,0.6,0.5,0.9c0.3,0.6,0.7,1.1,1,1.7c0.3,0.6,0.7,1.1,1.1,1.7
		c0.5,0.8,1.1,1.6,1.7,2.4c0.1,0.2,0.2,0.3,0.4,0.5c1.6,2.2,3.2,4.2,5,6.2c0.2,0.2,0.4,0.5,0.6,0.7c0.1,0.1,0.2,0.3,0.4,0.4l4.4,4.4
		c0.2,0.2,0.4,0.4,0.7,0.6c0.2,0.2,0.5,0.4,0.7,0.6c1,0.9,1.9,1.7,2.9,2.5c0.2,0.2,0.5,0.4,0.7,0.5c0.7,0.5,1.4,1.1,2.1,1.6
		c0.2,0.2,0.4,0.3,0.6,0.4c0.6,0.4,1.2,0.9,1.8,1.3c0.2,0.2,0.4,0.3,0.6,0.4c0.9,0.6,1.8,1.2,2.7,1.7c0.3,0.2,0.5,0.3,0.8,0.5
		s0.6,0.4,0.9,0.5c0.3,0.2,0.6,0.3,0.9,0.5c1.2,0.7,2.4,1.3,3.6,1.9c0.3,0.1,0.6,0.3,0.8,0.4c0.3,0.1,0.6,0.3,0.9,0.4
		c0.6,0.3,1.2,0.5,1.8,0.8c0.3,0.1,0.6,0.3,0.9,0.4c8.9-8.8,17.7-17.7,26.5-26.5c3.9-3.9,8.6-4.7,12.9-2.3c0.7,0.4,1.3,0.8,1.8,1.3
		l0,0c0.2,0.1,0.3,0.3,0.5,0.5c0.1,0.1,0.2,0.2,0.3,0.4c3.2,3.6,3.5,9.2,0.5,13.1c-0.2,0.3-0.5,0.7-0.8,1
		c-6.2,6.2-12.3,12.4-18.5,18.5c-0.1,0-0.1,0-0.2,0l0,0c0.3,0,0.6,0.1,0.9,0.1s0.7,0.1,1,0.1c0.6,0,1.1,0.1,1.7,0.1h87.8
		c44,0,79.7-35.7,79.7-79.7V83.2c0.1-0.4,0.1-0.7,0.1-1v-0.9C244.5,80.5,244.4,79.5,244.4,78.5z M76.2,185.5
		c-8.9,8.9-17.8,17.8-26.7,26.8c-1.9,1.9-3.9,3.2-6.7,3.7c-0.2,0-0.4,0.1-0.6,0.1c-0.5,0-0.9,0.1-1.4,0.1c-3.6-0.2-6.8-1.9-8.7-5.7
		c-1.8-3.8-1.4-7.4,1.1-10.8c0.5-0.6,1-1.2,1.6-1.8c18-18.1,36.1-36.1,54.1-54.2l2.2-2.2c4.6-4.6,10.3-5,14.7-1.2
		c0.2,0.1,0.3,0.2,0.4,0.4c0.1,0.1,0.2,0.2,0.4,0.4c0.1,0.1,0.2,0.2,0.3,0.4c0.2,0.3,0.5,0.6,0.7,0.9c0.1,0.2,0.3,0.4,0.4,0.6
		c0,0,0,0,0,0.1c0.1,0.1,0.2,0.3,0.2,0.4c0.1,0.1,0.1,0.3,0.2,0.4c0.1,0.1,0.1,0.3,0.2,0.4s0.1,0.3,0.2,0.4c0.1,0.1,0.1,0.3,0.2,0.4
		c0,0.1,0,0.2,0.1,0.2c0,0.2,0.1,0.3,0.1,0.5c0,0.1,0.1,0.3,0.1,0.5c0.5,2.8-0.1,5.8-2,8.2c-0.5,0.7-1.1,1.3-1.7,1.9
		c-0.9,0.9-1.7,1.7-2.6,2.6C94,167.7,85.1,176.6,76.2,185.5z M164.7,137.2c0,0.6-0.1,1.2-0.2,1.7c-0.1,0.5-0.1,1-0.2,1.5
		c0,0.2,0,0.4-0.1,0.6c-0.1,0.7-0.2,1.4-0.3,2.1l0,0c0,0.1,0,0.2-0.1,0.3c-0.1,0.3-0.1,0.6-0.2,0.8c-0.1,0.3-0.1,0.6-0.2,1
		c0,0.1,0,0.3-0.1,0.4c-0.2,0.9-0.5,1.8-0.7,2.7l0,0c0,0.1-0.1,0.2-0.1,0.4c-0.1,0.4-0.3,0.9-0.4,1.3c-0.1,0.2-0.2,0.5-0.3,0.7
		c-0.2,0.7-0.5,1.4-0.8,2c-0.1,0.4-0.3,0.7-0.5,1.1c-0.3,0.7-0.6,1.4-1,2.1c-0.1,0.2-0.2,0.5-0.4,0.7c0,0.1,0,0.1-0.1,0.2
		c-0.1,0.2-0.2,0.5-0.4,0.7c0,0,0,0.1-0.1,0.1c-0.1,0.1-0.1,0.3-0.2,0.4c-0.2,0.4-0.5,0.8-0.7,1.3c0,0.1-0.1,0.2-0.1,0.2
		c-0.2,0.3-0.3,0.5-0.5,0.8c0,0.1-0.1,0.1-0.1,0.2c0,0.1-0.1,0.1-0.1,0.2c-0.1,0.2-0.2,0.3-0.3,0.5c-0.2,0.3-0.3,0.5-0.5,0.8
		c-1.9,2.7-4,5.3-6.5,7.8c-9.4,9.5-18.8,18.9-28.2,28.2c-0.2,0.2-0.5,0.4-0.7,0.6c-1,0.9-2.1,1.5-3.1,2c-0.5,0.2-1,0.4-1.5,0.5h-0.1
		c-0.2,0.1-0.5,0.1-0.8,0.2c-4.2,0.8-8.4-1.1-10.5-5.2c-0.1-0.2-0.2-0.5-0.3-0.7l0,0c-0.2-0.5-0.5-1.1-0.6-1.8
		c-0.1-0.4-0.2-0.9-0.3-1.3c-0.3-2.5,0.3-5,2-7.1c0.6-0.8,1.3-1.5,2-2.2c5.4-5.4,10.8-10.8,16.2-16.3c3.8-3.8,7.5-7.6,11.3-11.3
		c2.9-2.9,5.1-6.2,6.7-9.8c2.6-6,3.3-12.5,2.1-18.7c-0.1-0.3-0.1-0.6-0.2-0.8c-0.1-0.3-0.2-0.7-0.3-1c-0.1-0.4-0.2-0.9-0.4-1.3
		c-0.1-0.4-0.3-0.8-0.5-1.3c-0.6-1.5-1.3-3.1-2.2-4.5c-0.4-0.6-0.8-1.2-1.2-1.9c-0.6-0.9-1.2-1.8-1.9-2.5c-0.2-0.2-0.4-0.5-0.6-0.7
		c-6.6-7.5-16-11-25.3-10.3c-0.4,0-0.8,0.1-1.2,0.1c-0.4,0-0.8,0.1-1.2,0.2c-0.4,0.1-0.8,0.1-1.2,0.2c-1.2,0.2-2.3,0.5-3.5,0.9
		c-4.5,1.5-8.9,4.1-12.7,7.8c-3.4,3.4-6.8,6.8-10.2,10.1c-6,6-12,12-17.9,18c-3.8,3.8-8.5,4.6-12.8,2.2c-5.4-3-6.9-10.3-3-15.2
		c0.3-0.3,0.5-0.7,0.8-1c10.6-10.2,20.7-21,31.6-30.9c3.1-2.9,6.5-5.3,9.9-7.2c9.3-5.1,19.8-6.8,31.1-5c0.4,0.1,0.9,0.1,1.3,0.2
		c8,1.4,14.9,4.2,20.8,8.2c2.5,1.7,4.7,3.6,6.8,5.8c2.7,2.7,5.1,5.8,7.2,9.2c2.1,3.6,3.9,7.5,5.4,11.8c1.1,3.1,1.6,6.4,2.1,9.7
		l0.3,5.4C164.9,134.6,164.8,135.9,164.7,137.2z M229.4,36.7c-0.5-0.6-0.9-1.3-1.4-1.9c-0.2-0.3-0.4-0.5-0.6-0.8
		c-0.2-0.3-0.4-0.5-0.6-0.8c-1.1-1.3-2.2-2.7-3.4-3.9l-0.5-0.5c-0.7-0.8-1.5-1.5-2.2-2.3c-0.2-0.2-0.3-0.3-0.5-0.5
		c-0.6-0.6-1.2-1.2-1.9-1.7l-0.5-0.5c-1.9-1.7-3.8-3.3-5.9-4.8c-0.2-0.1-0.3-0.2-0.5-0.4c-0.3-0.2-0.7-0.5-1-0.8
		c-0.3-0.2-0.5-0.4-0.7-0.5v5.9c0,0.6-0.1,0.9-0.4,1c-0.2,0.3-0.5,0.4-1,0.4h-17.1c-1.4,0-2.1,0.7-2.1,2.1v8.4
		c0,1.2,0.5,1.6,1.6,1.9h17.6c0.9,0,1.4,0.2,1.2,1.2v16.4c0,2.3,0.5,2.8,2.8,2.8h7.2c2.1,0,2.6-0.5,2.6-2.6V38.2
		c0-0.9,0.2-1.2,1.2-1.2h6.5C229.6,36.9,229.5,36.8,229.4,36.7z"/>
	<g>
		<path class="st1" d="M92.3,213.6c-0.1-0.1-0.2-0.2-0.3-0.4c-0.2-0.2-0.3-0.3-0.5-0.5l0,0c-0.5-0.5-1.1-0.9-1.7-1.2
			c-4.4-2.4-9-1.7-12.9,2.3c-8.9,8.8-17.7,17.7-26.5,26.5c7.2,3,14.9,5,22.9,5.8c0.1,0,0.1,0,0.2,0c6.2-6.1,12.3-12.3,18.5-18.5
			c0.3-0.3,0.6-0.7,0.8-1C95.9,222.8,95.5,217.2,92.3,213.6z M36.7,160c-1.2-4.4-4.5-7.1-8.3-7.7c-0.2,0-0.5-0.1-0.8-0.1
			c-0.4,0-0.8,0-1.2,0c-2.5,0.1-5.1,1.2-7.2,3.3c-5.9,5.8-11.7,11.7-17.5,17.5c0.6,8.3,2.5,16.2,5.5,23.4v0.1
			c8.6-8.7,17.2-17.2,25.8-25.9c0.7-0.7,1.4-1.4,2-2.2C36.8,166,37.5,163.2,36.7,160z"/>
		<path class="st1" d="M164.9,133.3c0,1.3-0.1,2.7-0.2,4c-0.7,9.2-3.5,17.5-8.6,24.9c-1.9,2.7-4,5.3-6.5,7.8
			c-9.4,9.5-18.8,18.9-28.2,28.2c-0.2,0.2-0.5,0.4-0.7,0.6c-1,0.8-2,1.5-3.1,2c-0.5,0.2-1,0.4-1.5,0.5H116c-4.7,1.2-9.5-1-11.6-5.7
			l0,0c-0.2-0.5-0.4-1.1-0.6-1.8c-0.1-0.4-0.2-0.9-0.3-1.3c-0.3-2.5,0.4-5,2-7.1c0.6-0.8,1.3-1.5,2-2.2c5.4-5.4,10.8-10.8,16.2-16.3
			l11.3-11.3c2.9-2.9,5.1-6.2,6.7-9.8c3.3-7.4,3.6-15.6,0.8-23.1c-0.6-1.5-1.3-3.1-2.2-4.5c-0.4-0.6-0.8-1.2-1.2-1.8
			c-6.6-9.7-17.3-14.4-27.9-13.5c-0.4,0-0.8,0.1-1.2,0.1c-0.4,0-0.8,0.1-1.2,0.2c-0.4,0.1-0.8,0.1-1.2,0.2c-1.2,0.2-2.4,0.5-3.5,0.9
			c-4.5,1.5-8.9,4.1-12.7,7.8c-3.4,3.4-6.8,6.8-10.2,10.1c-6,6-12,12-17.9,18c-3.8,3.8-8.5,4.6-12.8,2.2c-5.4-3-6.9-10.3-3-15.2
			c0.3-0.3,0.5-0.7,0.8-1c10.6-10.2,20.7-21,31.6-30.9c3.1-2.9,6.5-5.3,9.9-7.2c9.3-5.1,19.8-6.8,31.1-5c0.4,0.1,0.9,0.1,1.3,0.2
			c8,1.4,14.9,4.2,20.8,8.2c2.5,1.7,4.7,3.6,6.8,5.8c2.7,2.7,5.1,5.8,7.2,9.2c2.1,3.6,3.9,7.5,5.4,11.8c1.1,3.1,1.6,6.4,2.1,9.7
			L164.9,133.3z"/>
		<path class="st1" d="M107.2,154.3c-0.5,0.7-1.1,1.3-1.7,1.9c-0.9,0.9-1.7,1.7-2.6,2.6c-8.9,8.9-17.8,17.8-26.7,26.8
			c-8.9,8.9-17.8,17.8-26.8,26.8c-2,2-4.2,3.4-7.2,3.8c-0.5,0-0.9,0.1-1.4,0.1c-3.6-0.2-6.8-1.9-8.7-5.7c-1.8-3.8-1.4-7.4,1.1-10.8
			c0.5-0.6,1-1.2,1.6-1.8c18-18.1,36.1-36.1,54.1-54.2c0.7-0.7,1.5-1.5,2.2-2.2c4.6-4.6,10.3-5,14.7-1.2c0.2,0.1,0.3,0.2,0.4,0.4
			C110,144.3,110.5,150.1,107.2,154.3z"/>
	</g>
	<g>
		<path class="st1" d="M229.4,36.7c-0.5-0.6-0.9-1.3-1.4-1.9c-0.2-0.3-0.4-0.5-0.6-0.8c-0.2-0.3-0.4-0.5-0.6-0.8
			c-1.1-1.3-2.2-2.7-3.4-3.9l-0.5-0.5c-0.7-0.8-1.5-1.5-2.2-2.3c-0.2-0.2-0.3-0.3-0.5-0.5c-0.6-0.6-1.2-1.2-1.9-1.7l-0.5-0.5
			c-1.9-1.7-3.8-3.3-5.9-4.8c-0.2-0.1-0.3-0.2-0.5-0.4c-0.3-0.2-0.7-0.5-1-0.8c-0.3-0.2-0.5-0.4-0.7-0.5v5.9c0,0.6-0.1,0.9-0.4,1
			c-0.2,0.3-0.5,0.4-1,0.4h-17.1c-1.4,0-2.1,0.7-2.1,2.1v8.4c0,1.2,0.5,1.6,1.6,1.9h17.6c0.9,0,1.4,0.2,1.2,1.2v16.4
			c0,2.3,0.5,2.8,2.8,2.8h7.2c2.1,0,2.6-0.5,2.6-2.6V38.2c0-0.9,0.2-1.2,1.2-1.2h6.5C229.6,36.9,229.5,36.8,229.4,36.7z M229.4,36.7
			c-0.5-0.6-0.9-1.3-1.4-1.9c-0.2-0.3-0.4-0.5-0.6-0.8c-0.2-0.3-0.4-0.5-0.6-0.8c-1.1-1.3-2.2-2.7-3.4-3.9l-0.5-0.5
			c-0.7-0.8-1.5-1.5-2.2-2.3c-0.2-0.2-0.3-0.3-0.5-0.5c-0.6-0.6-1.2-1.2-1.9-1.7l-0.5-0.5c-1.9-1.7-3.8-3.3-5.9-4.8
			c-0.2-0.1-0.3-0.2-0.5-0.4c-0.3-0.2-0.7-0.5-1-0.8c-0.3-0.2-0.5-0.4-0.7-0.5v5.9c0,0.6-0.1,0.9-0.4,1c-0.2,0.3-0.5,0.4-1,0.4
			h-17.1c-1.4,0-2.1,0.7-2.1,2.1v8.4c0,1.2,0.5,1.6,1.6,1.9h17.6c0.9,0,1.4,0.2,1.2,1.2v16.4c0,2.3,0.5,2.8,2.8,2.8h7.2
			c2.1,0,2.6-0.5,2.6-2.6V38.2c0-0.9,0.2-1.2,1.2-1.2h6.5C229.6,36.9,229.5,36.8,229.4,36.7z M229.4,36.7c-0.5-0.6-0.9-1.3-1.4-1.9
			c-0.2-0.3-0.4-0.5-0.6-0.8c-0.2-0.3-0.4-0.5-0.6-0.8c-1.1-1.3-2.2-2.7-3.4-3.9l-0.5-0.5c-0.7-0.8-1.5-1.5-2.2-2.3
			c-0.2-0.2-0.3-0.3-0.5-0.5c-0.6-0.6-1.2-1.2-1.9-1.7l-0.5-0.5c-1.9-1.7-3.8-3.3-5.9-4.8c-0.2-0.1-0.3-0.2-0.5-0.4
			c-0.3-0.2-0.7-0.5-1-0.8c-0.3-0.2-0.5-0.4-0.7-0.5v5.9c0,0.6-0.1,0.9-0.4,1c-0.2,0.3-0.5,0.4-1,0.4h-17.1c-1.4,0-2.1,0.7-2.1,2.1
			v8.4c0,1.2,0.5,1.6,1.6,1.9h17.6c0.9,0,1.4,0.2,1.2,1.2v16.4c0,2.3,0.5,2.8,2.8,2.8h7.2c2.1,0,2.6-0.5,2.6-2.6V38.2
			c0-0.9,0.2-1.2,1.2-1.2h6.5C229.6,36.9,229.5,36.8,229.4,36.7z M229.4,36.7c-0.5-0.6-0.9-1.3-1.4-1.9c-0.2-0.3-0.4-0.5-0.6-0.8
			c-0.2-0.3-0.4-0.5-0.6-0.8c-1.1-1.3-2.2-2.7-3.4-3.9l-0.5-0.5c-0.7-0.8-1.5-1.5-2.2-2.3c-0.2-0.2-0.3-0.3-0.5-0.5
			c-0.6-0.6-1.2-1.2-1.9-1.7l-0.5-0.5c-1.9-1.7-3.8-3.3-5.9-4.8c-0.2-0.1-0.3-0.2-0.5-0.4c-0.3-0.2-0.7-0.5-1-0.8
			c-0.3-0.2-0.5-0.4-0.7-0.5v5.9c0,0.6-0.1,0.9-0.4,1c-0.2,0.3-0.5,0.4-1,0.4h-17.1c-1.4,0-2.1,0.7-2.1,2.1v8.4
			c0,1.2,0.5,1.6,1.6,1.9h17.6c0.9,0,1.4,0.2,1.2,1.2v16.4c0,2.3,0.5,2.8,2.8,2.8h7.2c2.1,0,2.6-0.5,2.6-2.6V38.2
			c0-0.9,0.2-1.2,1.2-1.2h6.5C229.6,36.9,229.5,36.8,229.4,36.7z M229.4,36.7c-0.5-0.6-0.9-1.3-1.4-1.9c-0.2-0.3-0.4-0.5-0.6-0.8
			c-0.2-0.3-0.4-0.5-0.6-0.8c-1.1-1.3-2.2-2.7-3.4-3.9l-0.5-0.5c-0.7-0.8-1.5-1.5-2.2-2.3c-0.2-0.2-0.3-0.3-0.5-0.5
			c-0.6-0.6-1.2-1.2-1.9-1.7l-0.5-0.5c-1.9-1.7-3.8-3.3-5.9-4.8c-0.2-0.1-0.3-0.2-0.5-0.4c-0.3-0.2-0.7-0.5-1-0.8
			c-0.3-0.2-0.5-0.4-0.7-0.5v5.9c0,0.6-0.1,0.9-0.4,1c-0.2,0.3-0.5,0.4-1,0.4h-17.1c-1.4,0-2.1,0.7-2.1,2.1v8.4
			c0,1.2,0.5,1.6,1.6,1.9h17.6c0.9,0,1.4,0.2,1.2,1.2v16.4c0,2.3,0.5,2.8,2.8,2.8h7.2c2.1,0,2.6-0.5,2.6-2.6V38.2
			c0-0.9,0.2-1.2,1.2-1.2h6.5C229.6,36.9,229.5,36.8,229.4,36.7z M244.4,78.5V77c-0.1-2.1-0.4-4.1-0.7-6.2
			c-7.5,5.2-16.4,8.3-25.8,8.5h-3.8c-2.1-0.2-4.2-0.2-6.1-0.7c-7.5-1.2-14-4-19.9-8.2c-4.4,1.2-8.7,2.3-13.1,3.5
			c-1.4,0.5-2.1,0.5-1.4-1.4c1.2-4.2,2.3-8.4,3.5-12.6c-6.8-8.9-10.1-19.4-9.8-31.1c0.2-4.4,0.9-8.7,2.1-12.9
			c1.3-4.3,3.2-8.2,5.6-11.8c-0.8-0.1-1.6-0.2-2.4-0.3c-0.3,0-0.6-0.1-0.9-0.1c-0.3,0-0.7-0.1-1-0.1c-0.6,0-1.1-0.1-1.7-0.1h-10.1
			c-3,6.1-5,12.7-5.9,19.7c-1.9,15.4,1.4,29.7,10.1,42.6c0.7,1.2,0.9,2.3,0.5,3.5c-1.6,5.8-3.3,11.9-5.2,18c-0.5,1.9,0,1.9,1.4,1.4
			c6.1-1.6,12.2-3,18.3-4.7c1.4-0.5,2.8-0.2,4.2,0.5c16.4,9.8,33.7,12.2,52,6.8c3.5-1.1,6.9-2.5,10.1-4.1v-4c0.1-0.4,0.1-0.7,0.1-1
			v-0.9C244.5,80.5,244.4,79.5,244.4,78.5z M229.4,36.7c-0.5-0.6-0.9-1.3-1.4-1.9c-0.2-0.3-0.4-0.5-0.6-0.8
			c-0.2-0.3-0.4-0.5-0.6-0.8c-1.1-1.3-2.2-2.7-3.4-3.9l-0.5-0.5c-0.7-0.8-1.5-1.5-2.2-2.3c-0.2-0.2-0.3-0.3-0.5-0.5
			c-0.6-0.6-1.2-1.2-1.9-1.7l-0.5-0.5c-1.9-1.7-3.8-3.3-5.9-4.8c-0.2-0.1-0.3-0.2-0.5-0.4c-0.3-0.2-0.7-0.5-1-0.8
			c-0.3-0.2-0.5-0.4-0.7-0.5v5.9c0,0.6-0.1,0.9-0.4,1c-0.2,0.3-0.5,0.4-1,0.4h-17.1c-1.4,0-2.1,0.7-2.1,2.1v8.4
			c0,1.2,0.5,1.6,1.6,1.9h17.6c0.9,0,1.4,0.2,1.2,1.2v16.4c0,2.3,0.5,2.8,2.8,2.8h7.2c2.1,0,2.6-0.5,2.6-2.6V38.2
			c0-0.9,0.2-1.2,1.2-1.2h6.5C229.6,36.9,229.5,36.8,229.4,36.7z M229.4,36.7c-0.5-0.6-0.9-1.3-1.4-1.9c-0.2-0.3-0.4-0.5-0.6-0.8
			c-0.2-0.3-0.4-0.5-0.6-0.8c-1.1-1.3-2.2-2.7-3.4-3.9l-0.5-0.5c-0.7-0.8-1.5-1.5-2.2-2.3c-0.2-0.2-0.3-0.3-0.5-0.5
			c-0.6-0.6-1.2-1.2-1.9-1.7l-0.5-0.5c-1.9-1.7-3.8-3.3-5.9-4.8c-0.2-0.1-0.3-0.2-0.5-0.4c-0.3-0.2-0.7-0.5-1-0.8
			c-0.3-0.2-0.5-0.4-0.7-0.5v5.9c0,0.6-0.1,0.9-0.4,1c-0.2,0.3-0.5,0.4-1,0.4h-17.1c-1.4,0-2.1,0.7-2.1,2.1v8.4
			c0,1.2,0.5,1.6,1.6,1.9h17.6c0.9,0,1.4,0.2,1.2,1.2v16.4c0,2.3,0.5,2.8,2.8,2.8h7.2c2.1,0,2.6-0.5,2.6-2.6V38.2
			c0-0.9,0.2-1.2,1.2-1.2h6.5C229.6,36.9,229.5,36.8,229.4,36.7z M229.4,36.7c-0.5-0.6-0.9-1.3-1.4-1.9c-0.2-0.3-0.4-0.5-0.6-0.8
			c-0.2-0.3-0.4-0.5-0.6-0.8c-1.1-1.3-2.2-2.7-3.4-3.9l-0.5-0.5c-0.7-0.8-1.5-1.5-2.2-2.3c-0.2-0.2-0.3-0.3-0.5-0.5
			c-0.6-0.6-1.2-1.2-1.9-1.7l-0.5-0.5c-1.9-1.7-3.8-3.3-5.9-4.8c-0.2-0.1-0.3-0.2-0.5-0.4c-0.3-0.2-0.7-0.5-1-0.8
			c-0.3-0.2-0.5-0.4-0.7-0.5v5.9c0,0.6-0.1,0.9-0.4,1c-0.2,0.3-0.5,0.4-1,0.4h-17.1c-1.4,0-2.1,0.7-2.1,2.1v8.4
			c0,1.2,0.5,1.6,1.6,1.9h17.6c0.9,0,1.4,0.2,1.2,1.2v16.4c0,2.3,0.5,2.8,2.8,2.8h7.2c2.1,0,2.6-0.5,2.6-2.6V38.2
			c0-0.9,0.2-1.2,1.2-1.2h6.5C229.6,36.9,229.5,36.8,229.4,36.7z M229.4,36.7c-0.5-0.6-0.9-1.3-1.4-1.9c-0.2-0.3-0.4-0.5-0.6-0.8
			c-0.2-0.3-0.4-0.5-0.6-0.8c-1.1-1.3-2.2-2.7-3.4-3.9l-0.5-0.5c-0.7-0.8-1.5-1.5-2.2-2.3c-0.2-0.2-0.3-0.3-0.5-0.5
			c-0.6-0.6-1.2-1.2-1.9-1.7l-0.5-0.5c-1.9-1.7-3.8-3.3-5.9-4.8c-0.2-0.1-0.3-0.2-0.5-0.4c-0.3-0.2-0.7-0.5-1-0.8
			c-0.3-0.2-0.5-0.4-0.7-0.5v5.9c0,0.6-0.1,0.9-0.4,1c-0.2,0.3-0.5,0.4-1,0.4h-17.1c-1.4,0-2.1,0.7-2.1,2.1v8.4
			c0,1.2,0.5,1.6,1.6,1.9h17.6c0.9,0,1.4,0.2,1.2,1.2v16.4c0,2.3,0.5,2.8,2.8,2.8h7.2c2.1,0,2.6-0.5,2.6-2.6V38.2
			c0-0.9,0.2-1.2,1.2-1.2h6.5C229.6,36.9,229.5,36.8,229.4,36.7z M229.4,36.7c-0.5-0.6-0.9-1.3-1.4-1.9c-0.2-0.3-0.4-0.5-0.6-0.8
			c-0.2-0.3-0.4-0.5-0.6-0.8c-1.1-1.3-2.2-2.7-3.4-3.9l-0.5-0.5c-0.7-0.8-1.5-1.5-2.2-2.3c-0.2-0.2-0.3-0.3-0.5-0.5
			c-0.6-0.6-1.2-1.2-1.9-1.7l-0.5-0.5c-1.9-1.7-3.8-3.3-5.9-4.8c-0.2-0.1-0.3-0.2-0.5-0.4c-0.3-0.2-0.7-0.5-1-0.8
			c-0.3-0.2-0.5-0.4-0.7-0.5v5.9c0,0.6-0.1,0.9-0.4,1c-0.2,0.3-0.5,0.4-1,0.4h-17.1c-1.4,0-2.1,0.7-2.1,2.1v8.4
			c0,1.2,0.5,1.6,1.6,1.9h17.6c0.9,0,1.4,0.2,1.2,1.2v16.4c0,2.3,0.5,2.8,2.8,2.8h7.2c2.1,0,2.6-0.5,2.6-2.6V38.2
			c0-0.9,0.2-1.2,1.2-1.2h6.5C229.6,36.9,229.5,36.8,229.4,36.7z M229.4,36.7c-0.5-0.6-0.9-1.3-1.4-1.9c-0.2-0.3-0.4-0.5-0.6-0.8
			c-0.2-0.3-0.4-0.5-0.6-0.8c-1.1-1.3-2.2-2.7-3.4-3.9l-0.5-0.5c-0.7-0.8-1.5-1.5-2.2-2.3c-0.2-0.2-0.3-0.3-0.5-0.5
			c-0.6-0.6-1.2-1.2-1.9-1.7l-0.5-0.5c-1.9-1.7-3.8-3.3-5.9-4.8c-0.2-0.1-0.3-0.2-0.5-0.4c-0.3-0.2-0.7-0.5-1-0.8
			c-0.3-0.2-0.5-0.4-0.7-0.5v5.9c0,0.6-0.1,0.9-0.4,1c-0.2,0.3-0.5,0.4-1,0.4h-17.1c-1.4,0-2.1,0.7-2.1,2.1v8.4
			c0,1.2,0.5,1.6,1.6,1.9h17.6c0.9,0,1.4,0.2,1.2,1.2v16.4c0,2.3,0.5,2.8,2.8,2.8h7.2c2.1,0,2.6-0.5,2.6-2.6V38.2
			c0-0.9,0.2-1.2,1.2-1.2h6.5C229.6,36.9,229.5,36.8,229.4,36.7z"/>
		<path class="st0" d="M243.7,70.9c-7.5,5.2-16.4,8.3-25.8,8.5h-3.8c-2.1-0.2-4.2-0.2-6.1-0.7c-7.5-1.2-14-4-19.9-8.2
			c-4.4,1.2-8.7,2.3-13.1,3.5c-1.4,0.5-2.1,0.5-1.4-1.4c1.2-4.2,2.3-8.4,3.5-12.6c-6.8-8.9-10.1-19.4-9.8-31.1
			c0.2-4.4,0.9-8.7,2.1-12.9c1.3-4.3,3.2-8.2,5.6-11.8c7.2,0.9,14.2,2.8,20.7,5.5c0.3,0.1,0.6,0.3,0.9,0.4c0.3,0.1,0.6,0.3,0.9,0.4
			c0.3,0.1,0.6,0.3,0.9,0.4c0.3,0.1,0.5,0.2,0.7,0.3c0.4,0.2,0.8,0.4,1.2,0.6c0.6,0.3,1.1,0.6,1.7,0.9c0.6,0.3,1.2,0.7,1.8,1
			c0.3,0.2,0.5,0.3,0.8,0.5c1.7,0.9,3.3,1.9,4.9,3l0.1,0.1h0.1v5.9c0,0.6-0.1,0.9-0.4,1c-0.2,0.3-0.5,0.4-1,0.4h-17.1
			c-1.4,0-2.1,0.7-2.1,2.1v8.4c0,1.2,0.5,1.6,1.6,1.9h17.6c0.9,0,1.4,0.2,1.2,1.2v16.4c0,2.3,0.5,2.8,2.8,2.8h7.2
			c2.1,0,2.6-0.5,2.6-2.6V38.2c0-0.9,0.2-1.2,1.2-1.2h6.5l0.1,0.1c0,0,0,0.1,0.1,0.1c1.3,1.8,2.5,3.6,3.6,5.5
			c0.1,0.2,0.2,0.3,0.3,0.5s0.2,0.3,0.3,0.5c0.9,1.5,1.7,3,2.4,4.5c0.2,0.3,0.3,0.6,0.4,0.8c0.1,0.3,0.3,0.6,0.4,0.9
			c0.2,0.3,0.3,0.5,0.4,0.8c0.2,0.3,0.3,0.7,0.5,1.1c0.1,0.3,0.2,0.5,0.3,0.8c0.2,0.3,0.3,0.6,0.4,0.9
			C241.1,59,242.8,64.8,243.7,70.9z"/>
		<g>
			<path class="st1" d="M229.7,37h-6.5c-0.9,0-1.2,0.2-1.2,1.2v16.6c0,2.1-0.5,2.6-2.6,2.6h-7.2c-2.3,0-2.8-0.5-2.8-2.8V38.2
				c0.2-0.9-0.2-1.2-1.2-1.2h-17.6c-1.2-0.2-1.6-0.7-1.6-1.9v-8.4c0-1.4,0.7-2.1,2.1-2.1h17.1c0.6,0,0.9-0.1,1-0.4
				c0.3-0.1,0.4-0.5,0.4-1v-5.9c0.3,0.1,0.5,0.3,0.7,0.5c0.3,0.3,0.7,0.6,1,0.8c0.2,0.2,0.3,0.3,0.5,0.4c2.1,1.5,4,3.1,5.9,4.8
				l0.5,0.5c0.7,0.5,1.3,1.1,1.9,1.7c0.2,0.2,0.3,0.3,0.5,0.5c0.7,0.8,1.5,1.5,2.2,2.3l0.5,0.5c1.2,1.2,2.3,2.6,3.4,3.9
				c0.2,0.3,0.4,0.5,0.6,0.8c0.2,0.3,0.4,0.5,0.6,0.8c0.5,0.6,0.9,1.3,1.4,1.9C229.5,36.8,229.6,36.9,229.7,37z"/>
		</g>
	</g>
</g>
</svg>
